<svg width="224" height="224" viewBox="0 0 224 224" fill="none" xmlns="http://www.w3.org/2000/svg">
<g filter="url(#filter0_d_126_28389)">
<rect y="112" width="158.392" height="158.392" rx="40" transform="rotate(-45 0 112)" fill="#955757"/>
</g>
<rect x="11.8789" y="100.8" width="142.553" height="142.553" rx="30" transform="rotate(-45 11.8789 100.8)" fill="#B67171"/>
<path d="M80.6016 74.5859C84.013 74.5859 87.2292 75.0677 90.25 76.0312C91.6042 76.474 92.5286 76.6953 93.0234 76.6953C93.5443 76.6953 94.638 76.3958 96.3047 75.7969C96.8516 75.6146 97.4115 75.5234 97.9844 75.5234C99.4427 75.5234 100.836 76.3828 102.164 78.1016C104.299 80.862 105.367 83.8828 105.367 87.1641C105.367 89.4036 104.794 91.2135 103.648 92.5938C102.529 93.974 101.044 94.6641 99.1953 94.6641C97.6849 94.6641 96.2005 94.1172 94.7422 93.0234C94.2995 92.6849 93.2188 91.4609 91.5 89.3516C88.6354 85.8359 85.3411 84.0781 81.6172 84.0781C78.2318 84.0781 75.5365 85.3151 73.5312 87.7891C71.5521 90.263 70.5625 93.5964 70.5625 97.7891C70.5625 104.013 72.151 109.312 75.3281 113.688C76.526 115.276 77.9583 116.552 79.625 117.516C81.2917 118.453 82.9453 118.922 84.5859 118.922C85.9401 118.922 87.0469 118.479 87.9062 117.594C88.7917 116.682 89.2344 115.523 89.2344 114.117C89.2344 112.867 88.8698 111.982 88.1406 111.461C87.8542 111.253 87.5807 111.135 87.3203 111.109C87.0859 111.057 86.3438 111.031 85.0938 111.031C83.974 111.031 83.0365 110.68 82.2812 109.977C81.5521 109.247 81.1875 108.336 81.1875 107.242C81.1875 105.081 82.6198 103.544 85.4844 102.633C88.6354 101.643 92.2682 101.148 96.3828 101.148C100.784 101.148 104.482 101.604 107.477 102.516C110.315 103.401 111.734 105.003 111.734 107.32C111.734 108.258 111.409 109.078 110.758 109.781C110.107 110.458 109.26 110.862 108.219 110.992C107.307 111.122 106.708 111.331 106.422 111.617C106.161 111.878 105.888 112.542 105.602 113.609C104.482 117.75 102.294 121.214 99.0391 124C96.7995 125.901 94.0911 127.385 90.9141 128.453C87.763 129.521 84.4427 130.055 80.9531 130.055C75.25 130.055 70.0156 128.74 65.25 126.109C60.3542 123.427 56.6302 119.677 54.0781 114.859C51.9427 110.849 50.875 106.513 50.875 101.852C50.875 97.138 52.151 92.6589 54.7031 88.4141C57.4115 83.8568 61.2005 80.3411 66.0703 77.8672C70.3151 75.6797 75.1589 74.5859 80.6016 74.5859ZM144.078 74.5859C150.771 74.5859 156.617 76.5 161.617 80.3281C165.003 82.9583 167.75 86.3698 169.859 90.5625C171.917 94.7292 172.945 98.8958 172.945 103.062C172.945 109.208 170.914 114.703 166.852 119.547C163.414 123.661 158.922 126.617 153.375 128.414C149.964 129.508 146.539 130.055 143.102 130.055C138.596 130.055 134.286 129.117 130.172 127.242C125.198 124.977 121.305 121.552 118.492 116.969C115.758 112.542 114.391 107.659 114.391 102.32C114.391 96.1224 116.148 90.6536 119.664 85.9141C122.789 81.6953 126.995 78.5964 132.281 76.6172C135.823 75.263 139.755 74.5859 144.078 74.5859ZM140.367 85.7969C138.18 85.7969 136.448 86.7734 135.172 88.7266C134.182 90.1849 133.688 91.9167 133.688 93.9219C133.688 96.8646 134.286 100.276 135.484 104.156C136.682 108.01 138.193 111.435 140.016 114.43C140.823 115.706 141.812 116.721 142.984 117.477C144.182 118.232 145.393 118.609 146.617 118.609C148.596 118.609 150.185 117.867 151.383 116.383C152.607 114.898 153.219 112.945 153.219 110.523C153.219 107.372 152.711 103.974 151.695 100.328C150.68 96.6823 149.365 93.5703 147.75 90.9922C146.76 89.4036 145.615 88.1536 144.312 87.2422C143.01 86.3307 141.695 85.849 140.367 85.7969Z" fill="white"/>
<defs>
<filter id="filter0_d_126_28389" x="12.5684" y="16.5686" width="198.863" height="202.863" filterUnits="userSpaceOnUse" color-interpolation-filters="sRGB">
<feFlood flood-opacity="0" result="BackgroundImageFix"/>
<feColorMatrix in="SourceAlpha" type="matrix" values="0 0 0 0 0 0 0 0 0 0 0 0 0 0 0 0 0 0 127 0" result="hardAlpha"/>
<feOffset dy="8"/>
<feGaussianBlur stdDeviation="2"/>
<feComposite in2="hardAlpha" operator="out"/>
<feColorMatrix type="matrix" values="0 0 0 0 0 0 0 0 0 0 0 0 0 0 0 0 0 0 0.37 0"/>
<feBlend mode="normal" in2="BackgroundImageFix" result="effect1_dropShadow_126_28389"/>
<feBlend mode="normal" in="SourceGraphic" in2="effect1_dropShadow_126_28389" result="shape"/>
</filter>
</defs>
</svg>
