<svg width="141" height="154" viewBox="0 0 141 154" fill="none" xmlns="http://www.w3.org/2000/svg">
<g filter="url(#filter0_d_275_28191)">
<path fill-rule="evenodd" clip-rule="evenodd" d="M135 122.056C135 130.538 135 148 125.5 148L70 148L67 148L11 148C2 148 2 130 2 122H70V122.051C83.1444 122.028 135 121.946 135 122.056Z" fill="url(#paint0_linear_275_28191)"/>
</g>
<rect x="3.5" y="1.5" width="130" height="130.101" rx="10.5" fill="#415A77" stroke="#484848" stroke-width="3"/>
<path d="M99.9048 87.7639H98.8584C98.6515 84.9927 97.8477 78 95.0151 78H77.484C74.6523 78 73.8485 84.9927 73.6416 87.7639H72.5952C70.6095 87.7639 69 89.4542 69 91.5398V98.0658C69 100.151 70.6095 100.917 72.5952 100.917H72.858V102.736C72.858 103.987 73.8723 105 75.1238 105C76.3753 105 77.3888 103.986 77.3888 102.736V100.917H95.1112V102.736C95.1112 103.987 96.1256 105 97.3771 105C98.6286 105 99.6421 103.986 99.6421 102.736V100.917H99.9048C101.891 100.917 103.5 99.2272 103.5 97.1415V91.5398C103.5 89.4542 101.891 87.7639 99.9048 87.7639ZM79.1356 79.8248H93.3644C95.8042 79.8248 96.3893 86.079 96.5092 87.9405H75.9908C76.1108 86.079 76.6958 79.8248 79.1356 79.8248ZM73.9904 94.4702C72.6163 94.4702 71.503 93.3564 71.503 91.9837C71.503 90.6109 72.6172 89.4972 73.9904 89.4972C75.3637 89.4972 76.4779 90.61 76.4779 91.9837C76.4779 93.3573 75.3646 94.4702 73.9904 94.4702ZM89.5294 98.6945H82.9725V95.2151H89.5294V98.6945ZM98.5105 94.4702C97.1372 94.4702 96.0231 93.3564 96.0231 91.9837C96.0231 90.6109 97.1372 89.4972 98.5105 89.4972C99.8837 89.4972 100.998 90.61 100.998 91.9837C100.998 93.3573 99.8837 94.4702 98.5105 94.4702Z" fill="white"/>
<path d="M103.164 86.6537C103.164 86.6537 103.003 84.7703 100.947 84.6806C98.8918 84.5919 99.7569 86.9905 99.7569 86.9905C100.885 87.524 103.164 86.6537 103.164 86.6537Z" fill="white"/>
<path d="M72.7259 87.2221C72.7259 87.2221 73.5911 84.8234 71.5358 84.9122C69.4805 85.001 69.3193 86.8853 69.3193 86.8853C69.3193 86.8853 71.598 87.7556 72.7259 87.2221Z" fill="white"/>
<path d="M73.6684 28H36V105H52.7017V72.728H73.6684C80.4783 72.728 86 66.7391 86 59.3508V41.3763C86 33.9889 80.4792 28 73.6684 28ZM70.822 54.235C70.822 57.417 68.4419 59.995 65.505 59.995H52.7008V40.733H65.505C68.4419 40.733 70.822 43.312 70.822 46.494V54.235Z" fill="white"/>
<path fill-rule="evenodd" clip-rule="evenodd" d="M9.5 16C9.5 10.7533 13.7533 6.5 19 6.5H119C124.247 6.5 128.5 10.7533 128.5 16V116C128.5 121.247 124.247 125.5 119 125.5H19C13.7533 125.5 9.5 121.247 9.5 116V16ZM19 9.5C15.4101 9.5 12.5 12.4101 12.5 16V116C12.5 119.59 15.4101 122.5 19 122.5H119C122.59 122.5 125.5 119.59 125.5 116V16C125.5 12.4101 122.59 9.5 119 9.5H19Z" fill="white"/>
<defs>
<filter id="filter0_d_275_28191" x="0" y="120" width="141" height="34" filterUnits="userSpaceOnUse" color-interpolation-filters="sRGB">
<feFlood flood-opacity="0" result="BackgroundImageFix"/>
<feColorMatrix in="SourceAlpha" type="matrix" values="0 0 0 0 0 0 0 0 0 0 0 0 0 0 0 0 0 0 127 0" result="hardAlpha"/>
<feOffset dx="2" dy="2"/>
<feGaussianBlur stdDeviation="2"/>
<feComposite in2="hardAlpha" operator="out"/>
<feColorMatrix type="matrix" values="0 0 0 0 0 0 0 0 0 0 0 0 0 0 0 0 0 0 0.25 0"/>
<feBlend mode="normal" in2="BackgroundImageFix" result="effect1_dropShadow_275_28191"/>
<feBlend mode="normal" in="SourceGraphic" in2="effect1_dropShadow_275_28191" result="shape"/>
</filter>
<linearGradient id="paint0_linear_275_28191" x1="8" y1="137.077" x2="127.5" y2="137.547" gradientUnits="userSpaceOnUse">
<stop offset="0.00517314" stop-color="#6D6D6D"/>
<stop offset="0.0428206" stop-color="#5B5B5B"/>
<stop offset="0.418407" stop-color="#484848"/>
<stop offset="0.965425" stop-color="#484848"/>
</linearGradient>
</defs>
</svg>
