<svg width="141" height="154" viewBox="0 0 141 154" fill="none" xmlns="http://www.w3.org/2000/svg">
<g filter="url(#filter0_d_275_28274)">
<path fill-rule="evenodd" clip-rule="evenodd" d="M135 122.056C135 130.538 135 148 125.5 148L70 148L67 148L11 148C2 148 2 130 2 122H70V122.051C83.1444 122.028 135 121.946 135 122.056Z" fill="url(#paint0_linear_275_28274)"/>
</g>
<rect x="3.5" y="1.5" width="130" height="130" rx="10.5" fill="#F2F2F2" stroke="#484848" stroke-width="3"/>
<rect x="17" y="14.75" width="12" height="46.5" fill="#C19065"/>
<rect x="40" y="14.75" width="12" height="46.5" fill="#C19065"/>
<rect x="63" y="14.75" width="12" height="46.5" fill="#C19065"/>
<rect x="86" y="14.75" width="12" height="46.5" fill="#C19065"/>
<rect x="109" y="14.75" width="12" height="46.5" fill="#C19065"/>
<rect x="11" y="46" width="116" height="6" fill="#CCCCCC" stroke="#5B5B5B" stroke-width="2"/>
<rect x="11" y="24" width="116" height="6" fill="#CCCCCC" stroke="#5B5B5B" stroke-width="2"/>
<rect x="17" y="70.75" width="12" height="46.5" fill="#C19065"/>
<rect x="40" y="70.75" width="12" height="46.5" fill="#C19065"/>
<rect x="63" y="70.75" width="12" height="46.5" fill="#C19065"/>
<rect x="86" y="70.75" width="12" height="46.5" fill="#C19065"/>
<rect x="109" y="70.75" width="12" height="46.5" fill="#C19065"/>
<rect x="11" y="102" width="116" height="6" fill="#CCCCCC" stroke="#5B5B5B" stroke-width="2"/>
<rect x="11" y="80" width="116" height="6" fill="#CCCCCC" stroke="#5B5B5B" stroke-width="2"/>
<defs>
<filter id="filter0_d_275_28274" x="0" y="120" width="141" height="34" filterUnits="userSpaceOnUse" color-interpolation-filters="sRGB">
<feFlood flood-opacity="0" result="BackgroundImageFix"/>
<feColorMatrix in="SourceAlpha" type="matrix" values="0 0 0 0 0 0 0 0 0 0 0 0 0 0 0 0 0 0 127 0" result="hardAlpha"/>
<feOffset dx="2" dy="2"/>
<feGaussianBlur stdDeviation="2"/>
<feComposite in2="hardAlpha" operator="out"/>
<feColorMatrix type="matrix" values="0 0 0 0 0 0 0 0 0 0 0 0 0 0 0 0 0 0 0.25 0"/>
<feBlend mode="normal" in2="BackgroundImageFix" result="effect1_dropShadow_275_28274"/>
<feBlend mode="normal" in="SourceGraphic" in2="effect1_dropShadow_275_28274" result="shape"/>
</filter>
<linearGradient id="paint0_linear_275_28274" x1="8" y1="137.077" x2="127.5" y2="137.547" gradientUnits="userSpaceOnUse">
<stop offset="0.00517314" stop-color="#6D6D6D"/>
<stop offset="0.0428206" stop-color="#5B5B5B"/>
<stop offset="0.418407" stop-color="#484848"/>
<stop offset="0.965425" stop-color="#484848"/>
</linearGradient>
</defs>
</svg>
