<svg width="133" height="148" viewBox="0 0 133 148" fill="none" xmlns="http://www.w3.org/2000/svg">
<path fill-rule="evenodd" clip-rule="evenodd" d="M133 122.056C133 130.538 133 148 123.5 148L68 148L65 148L9 148C0 148 0 130 0 122H68V122.051C81.1444 122.028 133 121.946 133 122.056Z" fill="url(#paint0_linear_317_38016)"/>
<rect x="1.5" y="131.5" width="130" height="130" rx="10.5" transform="rotate(-90 1.5 131.5)" fill="#6D6D6D" stroke="#484848" stroke-width="3"/>
<rect x="61" y="106" width="12" height="24" fill="white"/>
<path d="M61.0216 63.9999C61.0097 61.7908 62.7908 59.9903 64.9999 59.9784L72.9998 59.9351L73.1946 95.9344L61.1948 95.9993L61.0216 63.9999Z" fill="white"/>
<rect x="72.666" y="72" width="12" height="24" transform="rotate(-90 72.666 72)" fill="white"/>
<rect x="106" y="72" width="12" height="24" transform="rotate(-90 106 72)" fill="white"/>
<path d="M130 14H18C15.7909 14 14 15.7531 14 17.9622C14 33.0762 13.9999 88.3494 14 130" stroke="#FFD600" stroke-width="3"/>
<path d="M130 119L119 119V130" stroke="#FFD600" stroke-width="3"/>
<defs>
<linearGradient id="paint0_linear_317_38016" x1="6" y1="137.077" x2="125.5" y2="137.547" gradientUnits="userSpaceOnUse">
<stop offset="0.00517314" stop-color="#6D6D6D"/>
<stop offset="0.0428206" stop-color="#5B5B5B"/>
<stop offset="0.418407" stop-color="#484848"/>
<stop offset="0.965425" stop-color="#484848"/>
</linearGradient>
</defs>
</svg>
