<svg width="133" height="148" viewBox="0 0 133 148" fill="none" xmlns="http://www.w3.org/2000/svg">
<path fill-rule="evenodd" clip-rule="evenodd" d="M133 122.056C133 130.538 133 148 123.5 148L68 148L65 148L9 148C0 148 0 130 0 122H68V122.051C81.1444 122.028 133 121.946 133 122.056Z" fill="url(#paint0_linear_317_37900)"/>
<rect x="1.5" y="131.5" width="130" height="130" rx="10.5" transform="rotate(-90 1.5 131.5)" fill="#CCCCCC" stroke="#484848" stroke-width="3"/>
<rect x="61" y="106" width="12" height="24" fill="white"/>
<path d="M61.0216 63.9999C61.0097 61.7908 62.7908 59.9903 64.9999 59.9784L72.9998 59.9351L73.1946 95.9344L61.1948 95.9993L61.0216 63.9999Z" fill="white"/>
<rect x="73" y="72" width="12" height="41" transform="rotate(-90 73 72)" fill="white"/>
<path d="M109.089 52.2537L109.352 52.4113L128.924 64.3113C129.587 64.7138 130 65.3175 130 65.9912C130 66.665 129.575 67.2688 128.924 67.6713L109.389 79.5625L109.064 79.7638C108.751 79.9125 108.376 80 107.976 80C106.888 80 106 79.3525 106 78.5475L106 53.4525C106 52.6475 106.888 52 107.976 52C108.389 52 108.776 52.0962 109.089 52.2537Z" fill="white"/>
<path d="M52.7227 29.875L52.1719 31.9375C51.1797 31.9688 50.1641 31.9844 49.125 31.9844C45.4453 31.9844 42.4531 31.8633 40.1484 31.6211C37.8516 31.3789 35.9336 30.1797 34.3945 28.0234C34.1289 29.7422 33.7695 31.168 33.3164 32.3008L31.5117 31.1406C32.332 28.5625 32.7969 25.3945 32.9062 21.6367L34.875 21.6836C34.8984 22.7852 34.8477 23.8984 34.7227 25.0234C35.1445 25.9375 35.7461 26.7539 36.5273 27.4727V20.2773H31.6758V18.3555H36.5273V15.7891H32.2617V13.8438H36.5273V11.3008H38.543V13.8438H41.8359V15.7891H38.543V18.3555H42.2695V20.2773H38.5664V22.9609H41.8359V24.9531H38.5664V29.0781C39.5742 29.6562 42.8672 29.9453 48.4453 29.9453C49.8594 29.9453 51.2852 29.9219 52.7227 29.875ZM52.4883 23.3008C52.4492 24.9102 52.2734 26.0469 51.9609 26.7109C51.6562 27.3672 51.2734 27.7695 50.8125 27.918C50.3594 28.0586 49.4062 28.1289 47.9531 28.1289C47.0625 28.1289 46.2188 28.1133 45.4219 28.082C44.6328 28.0508 44.0703 27.8867 43.7344 27.5898C43.4062 27.293 43.2422 26.8555 43.2422 26.2773V12.2266H51.5742V20.4648H45.2695V25.6211C45.2695 25.8398 45.3633 25.9922 45.5508 26.0781C45.7461 26.1641 46.418 26.207 47.5664 26.207C48.832 26.207 49.5859 26.1406 49.8281 26.0078C50.0703 25.875 50.2266 25.5195 50.2969 24.9414C50.3672 24.3633 50.4023 23.5742 50.4023 22.5742L52.4883 23.3008ZM49.5117 18.4727V14.1719H45.2695V18.4727H49.5117ZM76.5586 16.9141H71.8359V20.9453H75.8203V32.2422H73.7227V30.9062H69.0469V32.2422H66.9844V20.9453H69.7383V11.3008H71.8359V14.8984H76.5586V16.9141ZM73.7227 28.8672V22.9375H69.0469V28.8672H73.7227ZM66.1641 26.6758H55.6289V24.8125H60.0234V23.2773H56.2031V21.4492H60.0234V20.1016H56.2266V11.7227H65.6367V20.1016H61.9219V21.4492H65.6602V23.2773H61.9219V24.8125H66.1641V26.6758ZM64.0781 18.4023V13.5039H61.9219V18.4023H64.0781ZM63.7969 14.3945C63.6641 15.6602 63.4375 16.8281 63.1172 17.8984L62.1797 17.582C62.4688 16.5742 62.6797 15.4141 62.8125 14.1016L63.7969 14.3945ZM60.0234 18.4023V13.5039H57.8203V18.4023H60.0234ZM59.543 17.5352L58.582 17.875C58.5039 16.6641 58.3594 15.5195 58.1484 14.4414L59.0859 14.1016C59.3047 15.1641 59.457 16.3086 59.543 17.5352ZM66.3633 30.7305L64.6523 31.1406C64.4727 30.0391 64.1367 28.8164 63.6445 27.4727L65.3086 27.1094C65.7617 28.2031 66.1133 29.4102 66.3633 30.7305ZM58.2422 27.5664C58.0859 29.4258 57.7109 31.0352 57.1172 32.3945L55.3945 31.5977C55.9258 30.0508 56.2695 28.5703 56.4258 27.1562L58.2422 27.5664ZM63.8203 31.3633L62.0391 31.6445C61.9531 30.4883 61.6328 29.1367 61.0781 27.5898L62.8359 27.3555C63.2891 28.6289 63.6172 29.9648 63.8203 31.3633ZM60.9141 31.8438L59.0859 32.0781C59.1484 30.9531 59.0039 29.4961 58.6523 27.707L60.3633 27.5195C60.6758 28.832 60.8594 30.2734 60.9141 31.8438Z" fill="#484848"/>
<path d="M14.728 51.2H27.286V52.096H14.728V51.2ZM21.7 51.508C22.47 53.328 24.43 54.014 27.594 54.168C27.356 54.392 27.104 54.826 26.978 55.12C23.59 54.84 21.63 53.93 20.678 51.676L21.7 51.508ZM22.68 50.528L23.114 49.884C24.052 50.094 25.298 50.5 25.97 50.794L25.508 51.536C24.864 51.214 23.632 50.78 22.68 50.528ZM19.334 46.664H27.454V47.462H19.334V46.664ZM24.374 45.628H25.368V48.806C25.368 49.296 25.27 49.534 24.892 49.66C24.486 49.8 23.898 49.8 22.974 49.8C22.918 49.534 22.792 49.212 22.652 48.988C23.352 49.002 23.954 49.002 24.136 48.988C24.318 48.988 24.374 48.946 24.374 48.792V45.628ZM14.644 46.566H18.34V47.434H14.644V46.566ZM17.78 42.24H18.76V50.066H17.78V42.24ZM15.358 42.66H16.254V44.704H18.34V45.544H15.358V42.66ZM20.398 47.966L21.098 47.518C21.658 47.91 22.302 48.498 22.61 48.918L21.868 49.422C21.588 48.988 20.958 48.372 20.398 47.966ZM20.16 44.2L20.79 43.906C21.448 44.284 22.246 44.886 22.624 45.334L21.98 45.642C21.616 45.208 20.832 44.606 20.16 44.2ZM21.532 43.64L22.092 43.318C22.876 43.696 23.828 44.298 24.29 44.774L23.702 45.124C23.254 44.662 22.33 44.032 21.532 43.64ZM25.774 42.912H25.956L26.138 42.884L26.698 43.178C25.494 45.264 22.722 46.174 19.908 46.58C19.824 46.37 19.628 46.048 19.474 45.866C22.092 45.572 24.752 44.732 25.774 43.052V42.912ZM23.142 42.24L24.066 42.436C23.072 43.36 21.63 44.102 19.684 44.69C19.558 44.494 19.306 44.214 19.124 44.074C20.972 43.612 22.372 42.94 23.142 42.24ZM22.596 42.912H26.054V43.57H21.77L22.596 42.912ZM15.582 46.972H16.534V47.658C16.534 48.4 16.31 49.66 15.344 50.444C15.162 50.276 14.77 50.08 14.518 49.954C15.428 49.282 15.582 48.232 15.582 47.644V46.972ZM20.398 49.8H21.448V50.836C21.448 52.376 20.706 54.308 14.994 55.162C14.868 54.91 14.602 54.532 14.406 54.294C19.74 53.51 20.398 51.942 20.398 50.808V49.8ZM34.944 43.262C33.782 44.928 31.528 46.86 29.162 48.12C29.036 47.868 28.742 47.504 28.518 47.28C30.94 46.062 33.264 43.99 34.342 42.226H35.42C36.904 44.256 39.326 46.132 41.524 47.112C41.272 47.364 41.02 47.728 40.838 48.036C38.668 46.916 36.232 44.998 34.944 43.262ZM31.472 46.51H38.5V47.462H31.472V46.51ZM29.666 49.324H40.32V50.262H29.666V49.324ZM29.022 53.748H40.992V54.672H29.022V53.748ZM34.384 46.874H35.49V54.238H34.384V46.874ZM30.828 50.976L31.682 50.626C32.256 51.396 32.83 52.46 33.026 53.16L32.116 53.552C31.934 52.852 31.388 51.76 30.828 50.976ZM38.15 50.598L39.144 51.004C38.612 51.886 37.954 52.894 37.436 53.552L36.638 53.202C37.142 52.516 37.8 51.396 38.15 50.598ZM46.5241 54.1392C45.8414 54.1392 45.2315 54.0215 44.6946 53.7862C44.161 53.5509 43.7384 53.2244 43.4268 52.8068C43.1186 52.3859 42.9529 51.8987 42.9297 51.3452H44.4908C44.5107 51.6468 44.6117 51.9086 44.794 52.1307C44.9796 52.3494 45.2216 52.5185 45.5199 52.6378C45.8182 52.7571 46.1496 52.8168 46.5142 52.8168C46.9152 52.8168 47.2699 52.7472 47.5781 52.608C47.8897 52.4687 48.1333 52.2749 48.3089 52.0263C48.4846 51.7744 48.5724 51.4844 48.5724 51.1562C48.5724 50.8149 48.4846 50.5149 48.3089 50.2564C48.1366 49.9946 47.883 49.7891 47.5483 49.6399C47.2169 49.4908 46.8158 49.4162 46.3452 49.4162H45.4851V48.1634H46.3452C46.723 48.1634 47.0545 48.0954 47.3395 47.9595C47.6278 47.8236 47.8532 47.6347 48.0156 47.3928C48.178 47.1475 48.2592 46.8608 48.2592 46.5327C48.2592 46.2178 48.188 45.9444 48.0455 45.7124C47.9063 45.477 47.7074 45.2931 47.4489 45.1605C47.1937 45.0279 46.892 44.9616 46.544 44.9616C46.2126 44.9616 45.9027 45.023 45.6143 45.1456C45.3293 45.2649 45.0973 45.4373 44.9183 45.6626C44.7393 45.8847 44.6432 46.1515 44.63 46.4631H43.1435C43.16 45.9129 43.3224 45.429 43.6307 45.0114C43.9422 44.5937 44.3532 44.2673 44.8636 44.032C45.3741 43.7966 45.9408 43.679 46.5639 43.679C47.2169 43.679 47.7803 43.8066 48.2543 44.0618C48.7315 44.3137 49.0994 44.6501 49.358 45.071C49.6198 45.492 49.7491 45.9527 49.7457 46.4531C49.7491 47.0232 49.59 47.5071 49.2685 47.9048C48.9503 48.3026 48.526 48.5694 47.9957 48.7053V48.7848C48.6719 48.8875 49.1955 49.156 49.5668 49.5902C49.9413 50.0244 50.1269 50.563 50.1236 51.206C50.1269 51.7661 49.9711 52.2682 49.6562 52.7124C49.3447 53.1565 48.9188 53.5062 48.3786 53.7614C47.8383 54.0133 47.2202 54.1392 46.5241 54.1392ZM55.5476 54.169C54.7621 54.1657 54.0909 53.9586 53.5341 53.5476C52.9773 53.1366 52.5514 52.5384 52.2564 51.7528C51.9614 50.9673 51.8139 50.0211 51.8139 48.9141C51.8139 47.8104 51.9614 46.8674 52.2564 46.0852C52.5547 45.303 52.9822 44.7064 53.5391 44.2955C54.0992 43.8845 54.7687 43.679 55.5476 43.679C56.3265 43.679 56.9943 43.8861 57.5511 44.3004C58.108 44.7114 58.5339 45.308 58.8288 46.0902C59.1271 46.8691 59.2763 47.8104 59.2763 48.9141C59.2763 50.0244 59.1288 50.9723 58.8338 51.7578C58.5388 52.54 58.1129 53.1383 57.5561 53.5526C56.9993 53.9635 56.3298 54.169 55.5476 54.169ZM55.5476 52.8416C56.237 52.8416 56.7756 52.5052 57.1634 51.8324C57.5545 51.1596 57.75 50.1868 57.75 48.9141C57.75 48.0689 57.6605 47.3546 57.4815 46.7713C57.3059 46.1847 57.0523 45.7405 56.7209 45.4389C56.3928 45.134 56.0017 44.9815 55.5476 44.9815C54.8615 44.9815 54.3229 45.3196 53.9318 45.9957C53.5407 46.6719 53.3435 47.6446 53.3402 48.9141C53.3402 49.7625 53.428 50.4801 53.6037 51.0668C53.7827 51.6501 54.0362 52.0926 54.3643 52.3942C54.6925 52.6925 55.0869 52.8416 55.5476 52.8416ZM64.5847 54.169C63.7992 54.1657 63.128 53.9586 62.5712 53.5476C62.0144 53.1366 61.5885 52.5384 61.2935 51.7528C60.9985 50.9673 60.851 50.0211 60.851 48.9141C60.851 47.8104 60.9985 46.8674 61.2935 46.0852C61.5918 45.303 62.0194 44.7064 62.5762 44.2955C63.1363 43.8845 63.8058 43.679 64.5847 43.679C65.3636 43.679 66.0314 43.8861 66.5882 44.3004C67.1451 44.7114 67.571 45.308 67.8659 46.0902C68.1642 46.8691 68.3134 47.8104 68.3134 48.9141C68.3134 50.0244 68.1659 50.9723 67.8709 51.7578C67.5759 52.54 67.15 53.1383 66.5932 53.5526C66.0364 53.9635 65.3669 54.169 64.5847 54.169ZM64.5847 52.8416C65.2741 52.8416 65.8127 52.5052 66.2005 51.8324C66.5916 51.1596 66.7871 50.1868 66.7871 48.9141C66.7871 48.0689 66.6976 47.3546 66.5186 46.7713C66.343 46.1847 66.0894 45.7405 65.758 45.4389C65.4299 45.134 65.0388 44.9815 64.5847 44.9815C63.8986 44.9815 63.36 45.3196 62.9689 45.9957C62.5778 46.6719 62.3806 47.6446 62.3773 48.9141C62.3773 49.7625 62.4651 50.4801 62.6408 51.0668C62.8198 51.6501 63.0733 52.0926 63.4015 52.3942C63.7296 52.6925 64.124 52.8416 64.5847 52.8416ZM73.6218 54.169C72.8363 54.1657 72.1651 53.9586 71.6083 53.5476C71.0515 53.1366 70.6256 52.5384 70.3306 51.7528C70.0356 50.9673 69.8881 50.0211 69.8881 48.9141C69.8881 47.8104 70.0356 46.8674 70.3306 46.0852C70.6289 45.303 71.0565 44.7064 71.6133 44.2955C72.1734 43.8845 72.8429 43.679 73.6218 43.679C74.4007 43.679 75.0685 43.8861 75.6254 44.3004C76.1822 44.7114 76.6081 45.308 76.9031 46.0902C77.2013 46.8691 77.3505 47.8104 77.3505 48.9141C77.3505 50.0244 77.203 50.9723 76.908 51.7578C76.613 52.54 76.1871 53.1383 75.6303 53.5526C75.0735 53.9635 74.404 54.169 73.6218 54.169ZM73.6218 52.8416C74.3112 52.8416 74.8498 52.5052 75.2376 51.8324C75.6287 51.1596 75.8242 50.1868 75.8242 48.9141C75.8242 48.0689 75.7347 47.3546 75.5558 46.7713C75.3801 46.1847 75.1265 45.7405 74.7951 45.4389C74.467 45.134 74.0759 44.9815 73.6218 44.9815C72.9357 44.9815 72.3971 45.3196 72.006 45.9957C71.6149 46.6719 71.4177 47.6446 71.4144 48.9141C71.4144 49.7625 71.5022 50.4801 71.6779 51.0668C71.8569 51.6501 72.1104 52.0926 72.4386 52.3942C72.7667 52.6925 73.1611 52.8416 73.6218 52.8416ZM86.2828 47.896H87.3608V53.3C87.3608 53.79 87.4728 53.874 88.0188 53.874C88.2708 53.874 89.4888 53.874 89.8388 53.874C90.4128 53.874 90.4968 53.51 90.5528 51.354C90.7908 51.55 91.2528 51.732 91.5328 51.816C91.4208 54.224 91.1408 54.882 89.9088 54.882C89.6288 54.882 88.1588 54.882 87.8928 54.882C86.6188 54.882 86.2828 54.518 86.2828 53.3V47.896ZM78.9608 47.266H91.3228V48.288H78.9608V47.266ZM80.1788 43.332H90.1328V44.354H80.1788V43.332ZM82.5448 48.05H83.6508C83.4128 51.186 82.7968 53.762 79.4508 55.092C79.3388 54.84 79.0308 54.462 78.7928 54.266C81.8868 53.104 82.3348 50.78 82.5448 48.05Z" fill="#484848"/>
<defs>
<linearGradient id="paint0_linear_317_37900" x1="6" y1="137.077" x2="125.5" y2="137.547" gradientUnits="userSpaceOnUse">
<stop offset="0.00517314" stop-color="#6D6D6D"/>
<stop offset="0.0428206" stop-color="#5B5B5B"/>
<stop offset="0.418407" stop-color="#484848"/>
<stop offset="0.965425" stop-color="#484848"/>
</linearGradient>
</defs>
</svg>
