<svg width="394" height="87" viewBox="0 0 394 87" fill="none" xmlns="http://www.w3.org/2000/svg">
<path d="M34.344 38.952L34.272 53.352C34.272 55.464 34.584 57.048 35.208 58.104C35.88 59.112 37.248 59.616 39.312 59.616H57.528C59.736 59.664 60.84 61.344 60.84 64.656C60.84 67.2 60.528 69.048 59.904 70.2C59.28 71.352 58.008 71.952 56.088 72C49.32 72.192 42.624 72.288 36 72.288C29.376 72.288 20.928 72.24 10.656 72.144C8.928 72.144 7.512 71.736 6.408 70.92C5.352 70.056 4.752 68.88 4.608 67.392C4.224 63.216 4.032 56.64 4.032 47.664C4.032 38.64 4.128 32.568 4.32 29.448C4.56 26.28 5.016 24.192 5.688 23.184C6.36 22.128 7.68 21.6 9.648 21.6H28.944C30.96 21.6 32.28 22.128 32.904 23.184C33.576 24.24 33.984 25.944 34.128 28.296C34.272 30.648 34.344 34.2 34.344 38.952Z" fill="#F2F2F2"/>
<path d="M87.488 54C87.488 59.376 88.904 62.064 91.736 62.064C94.568 62.064 95.984 59.376 95.984 54C95.984 51.552 95.696 49.68 95.12 48.384C94.544 47.04 93.416 46.368 91.736 46.368C90.056 46.368 88.928 47.04 88.352 48.384C87.776 49.68 87.488 51.552 87.488 54ZM118.592 54C118.592 67.056 109.64 73.584 91.736 73.584C73.832 73.584 64.88 67.056 64.88 54C64.88 47.808 67.16 43.008 71.72 39.6C76.28 36.192 82.952 34.488 91.736 34.488C100.52 34.488 107.192 36.192 111.752 39.6C116.312 43.008 118.592 47.808 118.592 54Z" fill="#F2F2F2"/>
<path d="M151.664 34.2C167.312 34.2 175.208 39.288 175.352 49.464C175.448 53.784 175.496 57.744 175.496 61.344C175.496 64.944 175.472 67.368 175.424 68.616C175.376 69.864 175.04 70.776 174.416 71.352C173.84 71.88 172.688 72.144 170.96 72.144H155.696C154.16 72.144 153.104 71.88 152.528 71.352C151.952 70.776 151.64 69.936 151.592 68.832C151.592 68.784 151.568 68.712 151.52 68.616C151.52 68.472 151.52 68.352 151.52 68.256C148.352 71.52 144.032 73.152 138.56 73.152C134.768 73.152 131.528 72.216 128.84 70.344C126.2 68.424 124.88 65.808 124.88 62.496C124.88 59.136 125.816 56.472 127.688 54.504C129.608 52.488 131.864 51.12 134.456 50.4C137.096 49.68 139.904 49.32 142.88 49.32C145.904 49.32 148.856 49.608 151.736 50.184V49.896C151.736 47.496 151.256 45.768 150.296 44.712C149.384 43.656 147.872 43.128 145.76 43.128C143.696 43.128 141.968 43.32 140.576 43.704C139.184 44.04 138.128 44.4 137.408 44.784C135.44 45.936 134.072 46.512 133.304 46.512C132.536 46.512 131.84 46.152 131.216 45.432C130.64 44.712 130.352 43.608 130.352 42.12C130.352 40.584 130.616 39.528 131.144 38.952C131.72 38.376 132.608 37.8 133.808 37.224C137.984 35.208 143.936 34.2 151.664 34.2ZM148.28 63.648C150.392 63.648 151.472 63.24 151.52 62.424C151.616 60.84 151.664 58.752 151.664 56.16C151.664 55.152 150.896 54.648 149.36 54.648C147.824 54.648 146.576 55.032 145.616 55.8C144.656 56.52 144.176 57.6 144.176 59.04C144.176 60.48 144.56 61.608 145.328 62.424C146.144 63.24 147.128 63.648 148.28 63.648Z" fill="#F2F2F2"/>
<path d="M207.936 46.368C205.104 46.368 203.688 48.72 203.688 53.424C203.688 58.08 205.104 60.408 207.936 60.408C209.04 60.408 210.024 60.048 210.888 59.328C211.8 58.56 212.256 57.504 212.256 56.16V50.616C212.256 49.272 211.8 48.24 210.888 47.52C210.024 46.752 209.04 46.368 207.936 46.368ZM231.696 71.856L224.064 72C221.28 72 219.408 71.952 218.448 71.856C215.472 71.664 213.984 69.984 213.984 66.816C212.208 68.832 209.904 70.464 207.072 71.712C204.288 72.96 201.72 73.584 199.368 73.584C194.568 73.584 190.608 72 187.488 68.832C184.416 65.664 182.88 60.768 182.88 54.144C182.88 45.888 185.688 40.128 191.304 36.864C194.28 35.088 197.76 34.2 201.744 34.2C205.728 34.2 209.112 35.088 211.896 36.864C212.808 37.488 213.312 37.296 213.408 36.288C213.504 35.232 213.552 33.696 213.552 31.68V25.704C213.552 24.744 213.576 23.784 213.624 22.824C213.672 21.816 213.96 21 214.488 20.376C215.016 19.704 216.096 19.368 217.728 19.368H231.552C233.136 19.368 234.192 19.752 234.72 20.52C235.296 21.288 235.608 22.464 235.656 24.048C235.8 30.864 235.872 37.824 235.872 44.928C235.872 44.928 235.824 52.776 235.728 68.472C235.728 69.432 235.272 70.248 234.36 70.92C233.496 71.544 232.608 71.856 231.696 71.856Z" fill="#F2F2F2"/>
<path d="M248.928 35.568H262.968C264.6 35.568 265.68 35.928 266.208 36.648C266.784 37.368 267.144 38.976 267.288 41.472C267.48 43.92 267.576 48.432 267.576 55.008C267.576 61.536 267.432 66.144 267.144 68.832C267 69.648 266.592 70.368 265.92 70.992C265.248 71.616 264.048 71.976 262.32 72.072C260.64 72.216 258.624 72.288 256.272 72.288C253.92 72.288 251.784 72.216 249.864 72.072C247.944 71.976 246.648 71.616 245.976 70.992C245.304 70.368 244.92 69.648 244.824 68.832C244.488 65.712 244.32 60.936 244.32 54.504C244.32 48.024 244.416 43.608 244.608 41.256C244.8 38.904 245.16 37.368 245.688 36.648C246.216 35.928 247.296 35.568 248.928 35.568ZM256.704 18.576C259.872 18.576 262.248 19.224 263.832 20.52C265.464 21.768 266.28 23.496 266.28 25.704C266.28 30.888 262.824 33.48 255.912 33.48C253.128 33.48 250.752 32.88 248.784 31.68C246.816 30.48 245.832 28.68 245.832 26.28C245.832 21.144 249.456 18.576 256.704 18.576Z" fill="#F2F2F2"/>
<path d="M307.568 68.904L307.64 51.336C307.64 49.896 307.28 48.816 306.56 48.096C305.84 47.376 304.928 47.016 303.824 47.016C302.768 47.016 301.784 47.4 300.872 48.168C300.008 48.888 299.576 49.92 299.576 51.264V55.656C299.576 61.992 299.432 66.312 299.144 68.616C299 69.432 298.592 70.152 297.92 70.776C297.248 71.4 296.048 71.784 294.32 71.928C292.64 72.024 290.96 72.072 289.28 72.072C287.6 72.072 284.744 71.976 280.712 71.784C279.56 71.736 278.648 71.4 277.976 70.776C277.304 70.152 276.92 69.432 276.824 68.616C276.488 65.496 276.32 60.72 276.32 54.288C276.32 47.856 276.416 43.464 276.608 41.112C276.8 38.712 277.16 37.152 277.688 36.432C278.216 35.712 279.296 35.352 280.928 35.352H294.968C296.6 35.352 297.68 35.712 298.208 36.432C298.784 37.152 299.144 38.376 299.288 40.104V40.176C302.984 36.336 307.472 34.416 312.752 34.416C318.08 34.416 322.256 35.712 325.28 38.304C328.304 40.896 329.84 44.472 329.888 49.032C329.984 53.592 330.032 57.672 330.032 61.272C330.032 64.872 330.008 67.296 329.96 68.544C329.912 69.792 329.576 70.704 328.952 71.28C328.376 71.808 327.224 72.072 325.496 72.072L311.672 72.216C310.136 72.216 309.056 71.952 308.432 71.424C307.856 70.848 307.568 70.008 307.568 68.904Z" fill="#F2F2F2"/>
<path d="M361.936 46.368C359.104 46.368 357.688 48.456 357.688 52.632C357.688 56.76 359.056 58.824 361.792 58.824C362.992 58.824 364.024 58.512 364.888 57.888C365.8 57.216 366.256 56.28 366.256 55.08V50.112C366.256 48.96 365.8 48.048 364.888 47.376C364.024 46.704 363.04 46.368 361.936 46.368ZM389.008 38.808L389.152 60.912C389.152 65.712 389.128 69.36 389.08 71.856C389.032 74.352 388.312 76.608 386.92 78.624C385.528 80.64 383.632 82.224 381.232 83.376C376.528 85.536 370.264 86.616 362.44 86.616C354.616 86.616 348.208 85.56 343.216 83.448C342.016 82.92 341.128 82.344 340.552 81.72C340.024 81.144 339.76 80.088 339.76 78.552C339.76 77.064 340.048 75.96 340.624 75.24C341.248 74.52 341.968 74.16 342.784 74.16C343.6 74.16 344.608 74.448 345.808 75.024C349.504 76.848 353.2 77.76 356.896 77.76C358.576 77.76 360.088 77.568 361.432 77.184C362.776 76.848 363.952 76.128 364.96 75.024C366.016 73.92 366.544 72.504 366.544 70.776L366.472 66.96C366.472 66.48 366.328 66.24 366.04 66.24C365.896 66.24 365.752 66.312 365.608 66.456C361.768 70.152 357.544 72 352.936 72C348.328 72 344.464 70.536 341.344 67.608C338.272 64.68 336.736 60.048 336.736 53.712C336.736 47.376 338.56 42.6 342.208 39.384C345.856 36.12 350.32 34.488 355.6 34.488C360.88 34.488 364.792 36.144 367.336 39.456C367.384 38.208 367.84 37.248 368.704 36.576C369.568 35.904 370.528 35.52 371.584 35.424C372.64 35.328 374.56 35.28 377.344 35.28L384.976 35.424C385.888 35.424 386.776 35.76 387.64 36.432C388.552 37.056 389.008 37.848 389.008 38.808Z" fill="#F2F2F2"/>
</svg>
