<svg width="603" height="281" viewBox="0 0 603 281" fill="none" xmlns="http://www.w3.org/2000/svg">
<path d="M416.114 39.2255C416.551 38.6894 416.308 37.8876 415.652 37.6698L395.808 31.0906C395.125 30.8648 394.356 31.0725 393.926 31.5873C385.073 42.2665 376.089 46.868 358.949 51.3648C358.15 51.5743 357.875 52.6698 358.337 53.3549C361.522 58.0886 361.415 68.0831 363.886 72.3877C364.104 72.7667 364.564 72.9029 364.976 72.7569C384.204 65.9386 403.888 54.21 416.114 39.2255Z" stroke="white" stroke-width="37" stroke-miterlimit="10"/>
<path d="M523.942 67.0115C523.942 67.0115 523.942 67.011 523.942 67.0108C504.744 60.8889 488.157 50.4004 479.934 39.3359C479.466 38.7063 478.667 38.3134 477.797 38.2642L439.537 36.0048C438.249 35.9289 437.135 36.7594 437.048 37.8624L436.082 49.8557C436.037 50.4146 436.46 50.9013 437.02 50.9343L462.974 52.4662C463.238 52.4818 463.484 52.5999 463.661 52.7963C473.624 63.8533 488.534 74.907 505.687 82.7516C506.801 83.2606 508.175 82.9659 508.872 82.0639C512.694 77.103 519.4 70.4543 523.97 67.1366C524.02 67.1013 524.006 67.0313 523.942 67.0123C523.941 67.0122 523.942 67.0115 523.942 67.0115V67.0115Z" stroke="white" stroke-width="37" stroke-miterlimit="10"/>
<path d="M352.365 144.072C352.365 144.067 352.369 144.063 352.374 144.063L362.864 144.687L394.39 146.571C394.928 146.603 395.335 147.071 395.292 147.608L395.199 148.773C395.115 149.839 393.554 149.84 393.468 148.775V148.775C393.428 148.283 392.988 147.924 392.498 147.983L384.987 148.886L382.024 149.16C370.969 150.336 360.239 151.431 352.212 151.993C351.527 152.041 351.091 152.747 351.356 153.38L357.203 167.375C357.383 167.806 357.837 168.055 358.298 167.974C368.803 166.121 381.236 163.961 392.9 161.786C393.548 161.665 394.133 162.192 394.081 162.849L393.892 165.214C393.816 166.169 392.433 166.213 392.297 165.264V165.264C392.231 164.801 391.784 164.492 391.327 164.594L383.863 166.265L380.925 166.827C369.942 169.107 359.272 171.269 351.292 172.584C350.641 172.691 350.269 173.386 350.541 173.987L357.599 189.576C357.804 190.029 358.311 190.263 358.789 190.124C363.208 188.844 367.974 187.473 372.877 186.052C373.354 185.914 373.861 186.147 374.059 186.603C375.718 190.437 377.375 195.513 378.236 199.797C378.555 201.379 380.095 202.561 381.943 202.665C391.734 203.204 399.508 203.312 405.652 201.28C412.464 199.033 414.849 194.744 415.523 186.221L419.919 130.968C419.964 130.41 419.541 129.924 418.982 129.891L354.782 126.058C354.239 126.026 353.769 126.434 353.726 126.977L352.365 144.072V144.072ZM392.352 184.535C392.21 186.297 391.318 186.836 389.115 186.702C387.757 186.619 383.742 186.379 379.567 186.041C378.473 185.953 378.331 184.459 379.384 184.151C383.36 182.99 387.364 181.809 391.295 180.631C391.969 180.429 392.636 180.967 392.58 181.669L392.352 184.535Z" stroke="white" stroke-width="37" stroke-miterlimit="10"/>
<path d="M484.237 131.517C484.237 131.521 484.234 131.523 484.23 131.523L426.271 128.059C425.727 128.026 425.257 128.435 425.214 128.978L423.751 147.405C423.707 147.963 424.129 148.449 424.688 148.483L435.527 149.128L471.22 151.259C471.779 151.293 472.202 151.778 472.157 152.337L472.046 153.739C471.95 154.942 470.188 154.943 470.091 153.74V153.74C470.046 153.186 469.549 152.779 468.996 152.846L460.513 153.867L457.169 154.178C444.604 155.512 432.402 156.761 423.318 157.388C422.633 157.435 422.198 158.141 422.462 158.774L429.174 174.851C429.354 175.283 429.808 175.532 430.269 175.451C442.204 173.343 456.358 170.88 469.61 168.405C470.258 168.284 470.844 168.811 470.791 169.468L470.565 172.306C470.479 173.384 468.917 173.433 468.764 172.362V172.362C468.689 171.838 468.184 171.49 467.668 171.605L459.236 173.492L455.922 174.127C443.439 176.715 431.316 179.176 422.291 180.659C421.64 180.766 421.268 181.461 421.54 182.062L429.052 198.662C429.573 199.819 431.048 200.417 432.411 200.026C437.012 198.695 441.913 197.279 446.942 195.821C447.42 195.682 447.927 195.914 448.125 196.37C450.161 201.054 452.203 207.415 453.095 212.5C453.292 213.621 454.356 214.467 455.659 214.543C467.379 215.214 476.611 215.452 483.842 213.058C491.533 210.515 494.229 205.673 494.994 196.043L498.962 146.167C499.565 138.595 492.976 132.036 484.244 131.511C484.24 131.51 484.237 131.513 484.237 131.517V131.517ZM468.825 194.16C468.826 194.159 468.828 194.16 468.828 194.161C468.67 196.152 467.661 196.758 465.175 196.61C463.568 196.513 458.671 196.221 453.721 195.811C452.628 195.721 452.487 194.224 453.54 193.916C458.3 192.526 463.105 191.109 467.811 189.696C468.485 189.494 469.153 190.032 469.097 190.734L468.823 194.158C468.823 194.16 468.824 194.16 468.825 194.16V194.16Z" stroke="white" stroke-width="37" stroke-miterlimit="10"/>
<path d="M486.01 81.8746C486.01 81.8726 486.009 81.8712 486.007 81.8718L464.692 88.3185C464.129 88.4888 463.834 89.1056 464.055 89.6507L466.92 96.7332C467.156 97.3168 466.79 97.9727 466.172 98.0908C421.385 106.644 392.331 106.724 389.525 98.7109C387.572 93.1264 405.827 81.4928 424.387 67.7671C424.94 67.3587 424.924 66.5274 424.357 66.14L410.085 56.3908C409.74 56.1557 409.28 56.1635 408.939 56.4035C374.777 80.4652 359.221 96.9781 362.406 106.075C366.863 118.807 396.59 131.337 473.619 115.529C474.092 115.432 474.583 115.683 474.764 116.131L479.222 127.153C479.416 127.633 479.944 127.885 480.439 127.736L498.729 122.203C500.498 121.667 501.428 119.996 500.808 118.465L486.011 81.8757C486.011 81.8753 486.01 81.8749 486.01 81.8746V81.8746Z" stroke="white" stroke-width="37" stroke-miterlimit="10"/>
<path d="M199.041 156.311C199.046 156.315 199.044 156.324 199.037 156.325C186.506 158.586 172.274 159.965 149.806 158.329C128.453 156.774 117.157 150.251 106.019 143.444C105.652 143.22 105.47 142.787 105.566 142.368C108.623 128.979 111.28 114.277 113.184 98.7677C113.242 98.2964 113.622 97.9294 114.096 97.8905L194.562 91.2804C195.127 91.234 195.54 90.7281 195.473 90.1655L192.562 65.7215C192.498 65.1872 192.023 64.7991 191.487 64.8431L116.812 70.9776C116.207 71.0273 115.698 70.531 115.73 69.9248C116.273 59.7632 116.439 49.4091 116.144 38.9805C116.129 38.4359 115.679 38.0051 115.134 38.0115L86.5329 38.3464C85.6226 38.3554 84.9158 39.0258 84.987 39.8086C85.3468 43.8142 86.1978 55.8841 85.5803 72.6578C85.5617 73.1629 85.1677 73.5772 84.664 73.6186L20.3508 78.8998C19.5269 78.9673 18.9218 79.6017 19.0082 80.3125L21.8408 104.103C21.9273 104.85 22.7003 105.394 23.5648 105.322L82.1398 100.51C82.7718 100.458 83.2928 100.992 83.2127 101.621C78.3945 139.458 65.3066 187.28 31.9531 224.601C31.5021 225.105 31.6683 225.909 32.2871 226.183C49.8087 233.946 61.1306 233.395 68.6474 227.738C75.1313 222.857 78.6352 213.661 82.3832 207.884C87.153 200.524 92.9805 186.928 98.4484 169.111C98.6316 168.514 99.3083 168.223 99.865 168.506C109.739 173.523 126.147 180.881 149.394 182.942C168.46 184.634 182.613 182.942 194.401 180.333C195.6 180.066 196.716 179.815 197.756 179.568C198.393 179.417 199.006 179.903 199.05 180.556C199.73 190.641 209.417 198.644 221.267 198.644H343.766C345.551 198.644 347 197.393 347 195.85V127.089C347 126.537 346.552 126.089 346 126.089H200.073C199.521 126.089 199.074 126.536 199.073 127.088C199.063 136.827 199.048 146.566 199.039 156.305C199.039 156.307 199.04 156.309 199.041 156.311V156.311ZM273.408 143.614C273.408 143.061 273.856 142.614 274.408 142.614H319.825C320.377 142.614 320.825 143.061 320.825 143.614V152.429C320.825 152.982 320.377 153.429 319.825 153.429H274.408C273.856 153.429 273.408 152.982 273.408 152.429V143.614ZM273.408 170.162C273.408 169.61 273.856 169.162 274.408 169.162H319.825C320.377 169.162 320.825 169.61 320.825 170.162V179.963C320.825 180.515 320.377 180.963 319.825 180.963H274.408C273.856 180.963 273.408 180.515 273.408 179.963V170.162ZM227.466 143.614C227.466 143.061 227.914 142.614 228.466 142.614H251.512C252.064 142.614 252.512 143.061 252.512 143.614V152.429C252.512 152.982 252.064 153.429 251.512 153.429H228.466C227.914 153.429 227.466 152.982 227.466 152.429V143.614ZM227.466 170.162C227.466 169.61 227.914 169.162 228.466 169.162H251.512C252.064 169.162 252.512 169.61 252.512 170.162V179.963C252.512 180.515 252.064 180.963 251.512 180.963H233.177C230.024 180.963 227.466 177.598 227.466 173.445V170.162Z" stroke="white" stroke-width="37" stroke-miterlimit="10"/>
<path d="M346.477 27.5251C346.477 27.5239 346.476 27.5229 346.475 27.5229H289.416C289.353 27.5229 289.296 27.4855 289.272 27.4278V27.4278C286.773 21.666 279.973 18.2125 272.974 19.1539L258.332 21.1207C257.669 21.2098 257.28 21.9118 257.57 22.5153C258.117 23.655 258.738 24.8816 259.339 26.104C259.664 26.763 259.182 27.5274 258.447 27.5274H202.6C201.701 27.5274 200.98 28.1656 201 28.9486L201.441 49.0219C201.453 49.5655 201.897 50 202.441 50H223.202C223.756 50 224.204 49.551 224.202 48.9979L224.191 43.6017C224.19 43.0486 224.638 42.5997 225.191 42.5997H320.685C321.464 42.5997 321.944 43.4516 321.54 44.118L319.495 47.4904C319.092 48.1568 319.571 49.0088 320.351 49.0088H345.993C346.548 49.0088 346.997 48.5571 346.993 48.0023L346.863 27.8623C346.863 27.6774 346.691 27.5285 346.479 27.5274C346.478 27.5274 346.477 27.5264 346.477 27.5251V27.5251Z" stroke="white" stroke-width="37" stroke-miterlimit="10"/>
<path d="M346 52H202C201.448 52 201 52.4477 201 53V65C201 65.5523 201.448 66 202 66H346C346.552 66 347 65.5523 347 65V53C347 52.4477 346.552 52 346 52Z" stroke="white" stroke-width="37" stroke-miterlimit="10"/>
<path d="M201 103.273C201 113.615 210.615 122 222.478 122H346C346.552 122 347 121.552 347 121V70C347 69.4477 346.552 69 346 69H202C201.448 69 201 69.4477 201 70V103.273ZM232.27 86.8373C232.27 86.285 232.718 85.8373 233.27 85.8373H313.061C313.613 85.8373 314.061 86.285 314.061 86.8373V104.648C314.061 105.2 313.613 105.648 313.061 105.648H244.498C237.745 105.648 232.27 101.492 232.27 96.3702V86.8373Z" stroke="white" stroke-width="37" stroke-miterlimit="10"/>
<path d="M417.114 42.2255C417.551 41.6894 417.308 40.8876 416.652 40.6698L396.808 34.0906C396.125 33.8648 395.356 34.0725 394.926 34.5873C386.073 45.2665 377.089 49.868 359.949 54.3648C359.15 54.5743 358.875 55.6698 359.337 56.3549C362.522 61.0886 362.415 71.0831 364.886 75.3877C365.104 75.7667 365.564 75.9029 365.976 75.7569C385.204 68.9386 404.888 57.21 417.114 42.2255Z" stroke="#001241" stroke-width="20" stroke-miterlimit="10"/>
<path d="M524.942 70.0115C524.942 70.0115 524.942 70.011 524.942 70.0108C505.744 63.8889 489.157 53.4004 480.934 42.3359C480.466 41.7063 479.667 41.3134 478.797 41.2642L440.537 39.0048C439.249 38.9289 438.135 39.7594 438.048 40.8624L437.082 52.8557C437.037 53.4146 437.46 53.9013 438.02 53.9343L463.974 55.4662C464.238 55.4818 464.484 55.5999 464.661 55.7963C474.624 66.8533 489.534 77.907 506.687 85.7516C507.801 86.2606 509.175 85.9659 509.872 85.0639C513.694 80.103 520.4 73.4543 524.97 70.1366C525.02 70.1013 525.006 70.0313 524.942 70.0123C524.941 70.0122 524.942 70.0115 524.942 70.0115V70.0115Z" stroke="#001241" stroke-width="20" stroke-miterlimit="10"/>
<path d="M353.365 147.072C353.365 147.067 353.369 147.063 353.374 147.063L363.864 147.687L395.39 149.571C395.928 149.603 396.335 150.071 396.292 150.608L396.199 151.773C396.115 152.839 394.554 152.84 394.468 151.775V151.775C394.428 151.283 393.988 150.924 393.498 150.983L385.987 151.886L383.024 152.16C371.969 153.336 361.239 154.431 353.212 154.993C352.527 155.041 352.091 155.747 352.356 156.38L358.203 170.375C358.383 170.806 358.837 171.055 359.298 170.974C369.803 169.121 382.236 166.961 393.9 164.786C394.548 164.665 395.133 165.192 395.081 165.849L394.892 168.214C394.816 169.169 393.433 169.213 393.297 168.264V168.264C393.231 167.801 392.784 167.492 392.327 167.594L384.863 169.265L381.925 169.827C370.942 172.107 360.272 174.269 352.292 175.584C351.641 175.691 351.269 176.386 351.541 176.987L358.599 192.576C358.804 193.029 359.311 193.263 359.789 193.124C364.208 191.844 368.974 190.473 373.877 189.052C374.354 188.914 374.861 189.147 375.059 189.603C376.718 193.437 378.375 198.513 379.236 202.797C379.555 204.379 381.095 205.561 382.943 205.665C392.734 206.204 400.508 206.312 406.652 204.28C413.464 202.033 415.849 197.744 416.523 189.221L420.919 133.968C420.964 133.41 420.541 132.924 419.982 132.891L355.782 129.058C355.239 129.026 354.769 129.434 354.726 129.977L353.365 147.072V147.072ZM393.352 187.535C393.21 189.297 392.318 189.836 390.115 189.702C388.757 189.619 384.742 189.379 380.567 189.041C379.473 188.953 379.331 187.459 380.384 187.151C384.36 185.99 388.364 184.809 392.295 183.631C392.969 183.429 393.636 183.967 393.58 184.669L393.352 187.535Z" stroke="#001241" stroke-width="20" stroke-miterlimit="10"/>
<path d="M485.237 134.517C485.237 134.521 485.234 134.523 485.23 134.523L427.271 131.059C426.727 131.026 426.257 131.435 426.214 131.978L424.751 150.405C424.707 150.963 425.129 151.449 425.688 151.483L436.527 152.128L472.22 154.259C472.779 154.293 473.202 154.778 473.157 155.337L473.046 156.739C472.95 157.942 471.188 157.943 471.091 156.74V156.74C471.046 156.186 470.549 155.779 469.996 155.846L461.513 156.867L458.169 157.178C445.604 158.512 433.402 159.761 424.318 160.388C423.633 160.435 423.198 161.141 423.462 161.774L430.174 177.851C430.354 178.283 430.808 178.532 431.269 178.451C443.204 176.343 457.358 173.88 470.61 171.405C471.258 171.284 471.844 171.811 471.791 172.468L471.565 175.306C471.479 176.384 469.917 176.433 469.764 175.362V175.362C469.689 174.838 469.184 174.49 468.668 174.605L460.236 176.492L456.922 177.127C444.439 179.715 432.316 182.176 423.291 183.659C422.64 183.766 422.268 184.461 422.54 185.062L430.052 201.662C430.573 202.819 432.048 203.417 433.411 203.026C438.012 201.695 442.913 200.279 447.942 198.821C448.42 198.682 448.927 198.914 449.125 199.37C451.161 204.054 453.203 210.415 454.095 215.5C454.292 216.621 455.356 217.467 456.659 217.543C468.379 218.214 477.611 218.452 484.842 216.058C492.533 213.515 495.229 208.673 495.994 199.043L499.962 149.167C500.565 141.595 493.976 135.036 485.244 134.511C485.24 134.51 485.237 134.513 485.237 134.517V134.517ZM469.825 197.16C469.826 197.159 469.828 197.16 469.828 197.161C469.67 199.152 468.661 199.758 466.175 199.61C464.568 199.513 459.671 199.221 454.721 198.811C453.628 198.721 453.487 197.224 454.54 196.916C459.3 195.526 464.105 194.109 468.811 192.696C469.485 192.494 470.153 193.032 470.097 193.734L469.823 197.158C469.823 197.16 469.824 197.16 469.825 197.16V197.16Z" stroke="#001241" stroke-width="20" stroke-miterlimit="10"/>
<path d="M487.01 84.8746C487.01 84.8726 487.009 84.8712 487.007 84.8718L465.692 91.3185C465.129 91.4888 464.834 92.1056 465.055 92.6507L467.92 99.7332C468.156 100.317 467.79 100.973 467.172 101.091C422.385 109.644 393.331 109.724 390.525 101.711C388.572 96.1264 406.827 84.4928 425.387 70.7671C425.94 70.3587 425.924 69.5274 425.357 69.14L411.085 59.3908C410.74 59.1557 410.28 59.1635 409.939 59.4035C375.777 83.4652 360.221 99.9781 363.406 109.075C367.863 121.807 397.59 134.337 474.619 118.529C475.092 118.432 475.583 118.683 475.764 119.131L480.222 130.153C480.416 130.633 480.944 130.885 481.439 130.736L499.729 125.203C501.498 124.667 502.428 122.996 501.808 121.465L487.011 84.8757C487.011 84.8753 487.01 84.8749 487.01 84.8746V84.8746Z" stroke="#001241" stroke-width="20" stroke-miterlimit="10"/>
<path d="M200.041 159.311C200.046 159.315 200.044 159.324 200.037 159.325C187.506 161.586 173.274 162.965 150.806 161.329C129.453 159.774 118.157 153.251 107.019 146.444C106.652 146.22 106.47 145.787 106.566 145.368C109.623 131.979 112.28 117.277 114.184 101.768C114.242 101.296 114.622 100.929 115.096 100.891L195.562 94.2804C196.127 94.234 196.54 93.7281 196.473 93.1655L193.562 68.7215C193.498 68.1872 193.023 67.7991 192.487 67.8431L117.812 73.9776C117.207 74.0273 116.698 73.531 116.73 72.9248C117.273 62.7632 117.439 52.4091 117.144 41.9805C117.129 41.4359 116.679 41.0051 116.134 41.0115L87.5329 41.3464C86.6226 41.3554 85.9158 42.0258 85.987 42.8086C86.3468 46.8142 87.1978 58.8841 86.5803 75.6578C86.5617 76.1629 86.1677 76.5772 85.664 76.6186L21.3508 81.8998C20.5269 81.9673 19.9218 82.6017 20.0082 83.3125L22.8408 107.103C22.9273 107.85 23.7003 108.394 24.5648 108.322L83.1398 103.51C83.7718 103.458 84.2928 103.992 84.2127 104.621C79.3945 142.458 66.3066 190.28 32.9531 227.601C32.5021 228.105 32.6683 228.909 33.2871 229.183C50.8087 236.946 62.1306 236.395 69.6474 230.738C76.1313 225.857 79.6352 216.661 83.3832 210.884C88.153 203.524 93.9805 189.928 99.4484 172.111C99.6316 171.514 100.308 171.223 100.865 171.506C110.739 176.523 127.147 183.881 150.394 185.942C169.46 187.634 183.613 185.942 195.401 183.333C196.6 183.066 197.716 182.815 198.756 182.568C199.393 182.417 200.006 182.903 200.05 183.556C200.73 193.641 210.417 201.644 222.267 201.644H344.766C346.551 201.644 348 200.393 348 198.85V130.089C348 129.537 347.552 129.089 347 129.089H201.073C200.521 129.089 200.074 129.536 200.073 130.088C200.063 139.827 200.048 149.566 200.039 159.305C200.039 159.307 200.04 159.309 200.041 159.311V159.311ZM274.408 146.614C274.408 146.061 274.856 145.614 275.408 145.614H320.825C321.377 145.614 321.825 146.061 321.825 146.614V155.429C321.825 155.982 321.377 156.429 320.825 156.429H275.408C274.856 156.429 274.408 155.982 274.408 155.429V146.614ZM274.408 173.162C274.408 172.61 274.856 172.162 275.408 172.162H320.825C321.377 172.162 321.825 172.61 321.825 173.162V182.963C321.825 183.515 321.377 183.963 320.825 183.963H275.408C274.856 183.963 274.408 183.515 274.408 182.963V173.162ZM228.466 146.614C228.466 146.061 228.914 145.614 229.466 145.614H252.512C253.064 145.614 253.512 146.061 253.512 146.614V155.429C253.512 155.982 253.064 156.429 252.512 156.429H229.466C228.914 156.429 228.466 155.982 228.466 155.429V146.614ZM228.466 173.162C228.466 172.61 228.914 172.162 229.466 172.162H252.512C253.064 172.162 253.512 172.61 253.512 173.162V182.963C253.512 183.515 253.064 183.963 252.512 183.963H234.177C231.024 183.963 228.466 180.598 228.466 176.445V173.162Z" stroke="#001241" stroke-width="20" stroke-miterlimit="10"/>
<path d="M347.477 30.5251C347.477 30.5239 347.476 30.5229 347.475 30.5229H290.416C290.353 30.5229 290.296 30.4855 290.272 30.4278V30.4278C287.773 24.666 280.973 21.2125 273.974 22.1539L259.332 24.1207C258.669 24.2098 258.28 24.9118 258.57 25.5153C259.117 26.655 259.738 27.8816 260.339 29.104C260.664 29.763 260.182 30.5274 259.447 30.5274H203.6C202.701 30.5274 201.98 31.1656 202 31.9486L202.441 52.0219C202.453 52.5655 202.897 53 203.441 53H224.202C224.756 53 225.204 52.551 225.202 51.9979L225.191 46.6017C225.19 46.0486 225.638 45.5997 226.191 45.5997H321.685C322.464 45.5997 322.944 46.4516 322.54 47.118L320.495 50.4904C320.092 51.1568 320.571 52.0088 321.351 52.0088H346.993C347.548 52.0088 347.997 51.5571 347.993 51.0023L347.863 30.8623C347.863 30.6774 347.691 30.5285 347.479 30.5274C347.478 30.5274 347.477 30.5264 347.477 30.5251V30.5251Z" stroke="#001241" stroke-width="20" stroke-miterlimit="10"/>
<path d="M347 55H203C202.448 55 202 55.4477 202 56V68C202 68.5523 202.448 69 203 69H347C347.552 69 348 68.5523 348 68V56C348 55.4477 347.552 55 347 55Z" stroke="#001241" stroke-width="20" stroke-miterlimit="10"/>
<path d="M202 106.273C202 116.615 211.615 125 223.478 125H347C347.552 125 348 124.552 348 124V73C348 72.4477 347.552 72 347 72H203C202.448 72 202 72.4477 202 73V106.273ZM233.27 89.8373C233.27 89.285 233.718 88.8373 234.27 88.8373H314.061C314.613 88.8373 315.061 89.285 315.061 89.8373V107.648C315.061 108.2 314.613 108.648 314.061 108.648H245.498C238.745 108.648 233.27 104.492 233.27 99.3702V89.8373Z" stroke="#001241" stroke-width="20" stroke-miterlimit="10"/>
<path d="M418 50.1169L396.808 43.0906C396.125 42.8648 395.356 43.0725 394.926 43.5873C385.744 54.6641 376.42 59.2023 358 63.8669C362.796 67.7097 362.057 80.6605 365.285 85C385.202 78.055 405.712 65.8131 418 50.1169Z" fill="url(#paint0_linear_477_10083)"/>
<path d="M524.944 79.0115C505.745 72.8897 489.157 62.4008 480.934 51.3359C480.466 50.7063 479.667 50.3134 478.797 50.2642L440.537 48.0048C439.249 47.9289 438.135 48.7594 438.048 49.8624L437 62.8741L464.386 64.4905C474.349 75.6492 489.376 86.8347 506.687 94.7516C507.801 95.2606 509.175 94.9659 509.872 94.0639C513.694 89.103 520.4 82.4543 524.97 79.1366C525.021 79.1009 525.005 79.0294 524.939 79.0115H524.944Z" fill="url(#paint1_linear_477_10083)"/>
<path d="M353.365 156.063L363.864 156.687L396.37 158.629L395.342 171.545L394.395 159.875L385.987 160.886L383.024 161.16C371.315 162.406 359.97 163.561 351.815 164.087L358.511 180.113C369.562 178.162 382.862 175.856 395.185 173.545L394.319 184.411L393.174 176.404L384.863 178.265L381.925 178.827C370.337 181.232 359.099 183.507 351 184.793L358.957 202.365C363.854 200.945 369.203 199.407 374.708 197.812C376.481 201.718 378.314 207.211 379.236 211.797C379.555 213.379 381.095 214.561 382.943 214.665C392.734 215.204 400.508 215.312 406.652 213.28C413.464 211.033 415.849 206.744 416.523 198.221L421 141.951L354.804 138L353.365 156.072V156.063ZM393.352 196.535C393.21 198.297 392.318 198.836 390.115 198.702C388.196 198.585 380.968 198.153 375.483 197.578C381.51 195.829 387.704 194.013 393.696 192.21L393.352 196.535Z" fill="url(#paint2_linear_477_10083)"/>
<path d="M485.237 143.524L426.292 140L424.67 160.422L436.527 161.128L473.238 163.32L472.078 177.914L471.009 164.724L461.513 165.867L458.169 166.178C444.949 167.582 432.129 168.891 422.922 169.481L430.482 187.59C442.962 185.384 457.986 182.774 471.895 180.164L470.917 192.441L469.625 183.391L460.236 185.492L456.922 186.127C443.834 188.841 431.141 191.415 422 192.868L430.052 210.662C430.573 211.819 432.048 212.417 433.411 212.026C438.265 210.621 443.454 209.123 448.774 207.579C450.923 212.318 453.152 219.122 454.095 224.5C454.292 225.621 455.356 226.467 456.659 226.543C468.379 227.214 477.611 227.452 484.842 225.058C492.533 222.515 495.229 217.673 495.994 208.043L499.962 158.167C500.565 150.593 493.972 144.032 485.237 143.51V143.524ZM469.828 206.157C469.671 208.151 468.663 208.758 466.175 208.61C464.006 208.479 455.843 207.993 449.646 207.341C456.451 205.365 463.449 203.313 470.213 201.275L469.823 206.162L469.828 206.157Z" fill="url(#paint3_linear_477_10083)"/>
<path d="M487.01 93.8706L464.644 100.636L468.375 109.86C422.905 118.642 393.357 118.795 390.525 110.711C388.533 105.013 407.574 93.0194 426.515 78.9311L410.513 68C375.951 92.2807 360.204 108.927 363.406 118.075C367.879 130.853 397.804 143.428 475.451 127.357L480.565 140L499.729 134.203C501.498 133.667 502.428 131.996 501.808 130.465L487.01 93.8751V93.8706Z" fill="url(#paint4_linear_477_10083)"/>
<path d="M200.054 168.322C187.518 170.585 173.284 171.966 150.806 170.329C129.061 168.745 117.746 162.01 106.405 155.068C109.583 141.261 112.34 126.037 114.282 109.957L196.596 103.195L193.448 76.7642L116.668 83.0717C117.278 72.2247 117.461 61.1529 117.115 50L87.5329 50.3464C86.6227 50.3554 85.9158 51.0258 85.987 51.8086C86.3531 55.8846 87.2278 68.3107 86.5464 85.5461L21.3508 90.8998C20.5269 90.9673 19.9218 91.6017 20.0082 92.3125L22.8408 116.103C22.9273 116.85 23.7003 117.394 24.5648 117.322L84.3647 112.409C79.6301 150.776 66.4283 199.756 32.0353 237.619C50.2718 245.969 61.9531 245.528 69.6474 239.738C76.1313 234.857 79.6352 225.661 83.3832 219.884C88.2551 212.367 94.2305 198.343 99.7991 179.961C109.538 184.973 126.289 192.805 150.394 194.942C169.46 196.634 183.613 194.942 195.401 192.333C197.099 191.955 198.63 191.609 200.013 191.262C199.911 201.947 209.915 210.644 222.267 210.644H344.766C346.551 210.644 348 209.393 348 207.85V138.089H200.074C200.064 148.162 200.049 158.235 200.039 168.309L200.054 168.322ZM274.408 154.614H321.825V165.429H274.408V154.614ZM274.408 181.162H321.825V192.963H274.408V181.162ZM228.466 154.614H253.512V165.429H228.466V154.614ZM228.466 181.162H253.512V192.963H234.177C231.024 192.963 228.466 189.598 228.466 185.445V181.162Z" fill="url(#paint5_linear_477_10083)"/>
<path d="M347.477 39.5229H290.312L290.272 39.4278C287.773 33.666 280.973 30.2125 273.974 31.1539L258.002 33.2993C258.845 35.1687 260.023 37.4091 261.029 39.5274H203.6C202.701 39.5274 201.98 40.1656 202 40.9486L202.463 62H225.205L225.189 54.5997H323.46L319.575 61.0088H348L347.863 39.8623C347.863 39.6768 347.69 39.5274 347.477 39.5274V39.5229Z" fill="url(#paint6_linear_477_10083)"/>
<path d="M348 64H202V78H348V64Z" fill="url(#paint7_linear_477_10083)"/>
<path d="M202 115.273C202 125.615 211.615 134 223.478 134H348V81H202V115.273ZM233.27 97.8373H315.061V117.648H245.498C238.745 117.648 233.27 113.492 233.27 108.37V97.8373Z" fill="url(#paint8_linear_477_10083)"/>
<path d="M168.031 235.438L167.125 233.25C166.562 231.979 165.865 231.135 165.031 230.719C163.531 229.927 162.781 228.927 162.781 227.719C162.781 225.052 166.781 223.719 174.781 223.719C178.781 223.719 181.823 224.042 183.906 224.688C184.615 224.917 185.177 225.281 185.594 225.781C186.031 226.281 186.25 226.833 186.25 227.438C186.25 227.958 186.146 228.354 185.938 228.625C185.75 228.896 185.208 229.427 184.312 230.219C183.792 230.656 183.531 231.115 183.531 231.594C183.531 232.323 183.927 233.531 184.719 235.219L186.5 239.031C187.312 240.76 187.885 241.865 188.219 242.344C188.573 242.802 188.969 243.031 189.406 243.031C189.885 243.031 190.292 242.76 190.625 242.219C190.979 241.677 191.427 240.615 191.969 239.031L193.469 234.656C193.885 233.406 194.094 232.469 194.094 231.844C194.094 231.01 193.656 230.458 192.781 230.188C191.031 229.625 190.156 228.625 190.156 227.188C190.156 225.938 190.833 225.042 192.188 224.5C193.542 223.958 195.771 223.688 198.875 223.688C200.896 223.688 202.469 223.917 203.594 224.375C205.156 225 205.938 226 205.938 227.375C205.938 227.979 205.792 228.5 205.5 228.938C205.229 229.375 204.667 229.958 203.812 230.688C203.25 231.167 202.812 231.677 202.5 232.219C202.208 232.76 201.75 233.875 201.125 235.562L195.656 250.094C192.927 256.865 191.281 260.896 190.719 262.188C190.156 263.479 189.573 264.635 188.969 265.656C188.51 266.406 188 266.927 187.438 267.219C186.875 267.531 186.125 267.688 185.188 267.688C183.938 267.688 182.927 267.417 182.156 266.875C181.406 266.333 180.771 265.438 180.25 264.188L174.062 249.5C173.729 248.688 173.479 248.177 173.312 247.969C173.146 247.76 172.917 247.656 172.625 247.656C172.188 247.656 171.812 247.917 171.5 248.438C171.188 248.958 170.594 250.302 169.719 252.469L165.469 263.031C164.677 264.948 163.917 266.219 163.188 266.844C162.479 267.448 161.396 267.75 159.938 267.75C158.625 267.75 157.583 267.438 156.812 266.812C156.062 266.188 155.375 265.083 154.75 263.5L143.25 234.094C142.771 232.885 142.438 232.177 142.25 231.969C142.083 231.74 141.531 231.375 140.594 230.875C139.531 230.333 139 229.417 139 228.125C139 225.188 142.646 223.719 149.938 223.719C153.667 223.719 156.365 223.979 158.031 224.5C159.635 225.021 160.438 226.052 160.438 227.594C160.438 228.073 160.396 228.427 160.312 228.656C160.229 228.865 159.927 229.344 159.406 230.094C159.156 230.49 159.031 230.979 159.031 231.562C159.031 232.604 159.729 234.771 161.125 238.062L162.406 241.062C162.948 242.312 163.302 243.073 163.469 243.344C163.656 243.594 163.917 243.719 164.25 243.719C165.062 243.719 165.896 242.562 166.75 240.25L168.031 236.688C168.135 236.438 168.188 236.24 168.188 236.094C168.188 235.927 168.135 235.708 168.031 235.438ZM213.281 224.344H229.344C232.594 224.344 234.958 224.281 236.438 224.156C237.938 224.01 239.396 223.729 240.812 223.312C241.25 223.188 241.594 223.125 241.844 223.125C242.927 223.125 243.885 223.708 244.719 224.875C246.094 226.771 246.781 229.062 246.781 231.75C246.781 233.104 246.49 234.177 245.906 234.969C245.344 235.74 244.562 236.125 243.562 236.125C242.875 236.125 242.333 235.99 241.938 235.719C241.562 235.427 241.052 234.792 240.406 233.812C239.49 232.417 238.323 231.49 236.906 231.031C235.51 230.552 233.208 230.312 230 230.312C227.604 230.312 226.146 230.74 225.625 231.594C225.354 232.052 225.188 232.667 225.125 233.438C225.083 234.208 225.062 236.177 225.062 239.344C225.062 240.594 225.271 241.375 225.688 241.688C226.104 241.979 227.198 242.125 228.969 242.125C229.844 242.125 230.479 241.948 230.875 241.594C231.271 241.219 231.521 240.562 231.625 239.625C231.771 238.417 231.917 237.594 232.062 237.156C232.229 236.698 232.521 236.302 232.938 235.969C233.375 235.594 233.885 235.406 234.469 235.406C235.323 235.406 236.052 235.812 236.656 236.625C237.094 237.229 237.458 238.302 237.75 239.844C238.062 241.365 238.219 242.958 238.219 244.625C238.219 247.917 237.708 250.615 236.688 252.719C236.125 253.865 235.271 254.438 234.125 254.438C233.417 254.438 232.927 254.26 232.656 253.906C232.385 253.531 232.177 252.771 232.031 251.625C231.719 249.271 230.344 248.094 227.906 248.094C226.969 248.094 226.323 248.396 225.969 249C225.635 249.583 225.469 250.677 225.469 252.281C225.469 253.26 225.531 254.531 225.656 256.094C225.802 257.635 225.948 258.656 226.094 259.156C226.26 259.781 226.771 260.219 227.625 260.469C228.5 260.698 229.948 260.812 231.969 260.812C235.094 260.812 237.448 260.417 239.031 259.625C240.615 258.812 241.906 257.354 242.906 255.25C243.49 254.042 244.01 253.229 244.469 252.812C244.948 252.396 245.562 252.188 246.312 252.188C247.188 252.188 247.906 252.573 248.469 253.344C249.052 254.094 249.344 255.042 249.344 256.188C249.344 257.438 249.021 259 248.375 260.875C247.729 262.75 246.938 264.417 246 265.875C245.521 266.583 245.125 267.052 244.812 267.281C244.5 267.531 244.104 267.656 243.625 267.656C243.229 267.656 242.656 267.594 241.906 267.469C240.573 267.219 238.792 267.062 236.562 267H210.062C209 267 208.177 266.771 207.594 266.312C207.01 265.833 206.719 265.167 206.719 264.312C206.719 263.708 206.844 263.271 207.094 263C207.344 262.729 207.917 262.385 208.812 261.969C209.438 261.698 209.896 261.365 210.188 260.969C210.5 260.573 210.74 259.99 210.906 259.219C211.594 256.073 211.938 251.833 211.938 246.5C211.938 238.458 211.438 233.385 210.438 231.281C210.229 230.865 210 230.573 209.75 230.406C209.5 230.24 208.979 230.042 208.188 229.812C207 229.458 206.406 228.667 206.406 227.438C206.406 226.771 206.604 226.177 207 225.656C207.396 225.135 207.917 224.792 208.562 224.625C209.375 224.438 210.948 224.344 213.281 224.344ZM307.438 245.406L313.344 258.062C313.906 259.229 314.375 260 314.75 260.375C315.125 260.729 315.698 260.969 316.469 261.094C317.969 261.323 318.719 262.083 318.719 263.375C318.719 264.896 317.802 265.99 315.969 266.656C314.135 267.323 311.135 267.656 306.969 267.656C302.26 267.656 298.771 267.458 296.5 267.062C295.458 266.875 294.625 266.5 294 265.938C293.396 265.354 293.094 264.656 293.094 263.844C293.094 263.219 293.25 262.74 293.562 262.406C293.896 262.052 294.5 261.729 295.375 261.438C296.354 261.104 296.844 260.542 296.844 259.75C296.844 258.354 296 257.531 294.312 257.281C292.5 257.031 289.948 256.906 286.656 256.906C283.885 256.906 282.229 257.073 281.688 257.406C281.354 257.615 281.062 257.99 280.812 258.531C280.562 259.073 280.438 259.594 280.438 260.094C280.438 260.552 280.521 260.854 280.688 261C280.875 261.125 281.458 261.344 282.438 261.656C283.708 262.031 284.344 262.781 284.344 263.906C284.344 266.385 281.375 267.625 275.438 267.625C272.062 267.625 269.583 267.396 268 266.938C266.542 266.5 265.812 265.542 265.812 264.062C265.812 263.417 265.969 262.917 266.281 262.562C266.615 262.208 267.198 261.885 268.031 261.594C269.385 261.115 270.406 260.448 271.094 259.594C271.802 258.719 272.802 256.865 274.094 254.031L278.5 244.375C280.125 240.833 281.208 238.188 281.75 236.438C282.312 234.667 282.604 232.938 282.625 231.25C282.646 229.458 282.75 228.219 282.938 227.531C283.146 226.823 283.594 226.135 284.281 225.469C285.719 224.01 287.552 223.281 289.781 223.281C291.885 223.281 293.896 224.104 295.812 225.75C298.479 228 302.354 234.552 307.438 245.406ZM285.688 249.344H291.812C292.938 249.344 293.5 249.094 293.5 248.594C293.5 247.906 292.719 246.219 291.156 243.531C290.448 242.302 289.906 241.479 289.531 241.062C289.156 240.646 288.76 240.438 288.344 240.438C287.594 240.438 286.969 241.135 286.469 242.531C286.385 242.719 286.083 243.458 285.562 244.75C284.688 246.875 284.25 248.146 284.25 248.562C284.25 249.083 284.729 249.344 285.688 249.344ZM340.438 249.062C339.646 249.062 339.135 249.302 338.906 249.781C338.698 250.26 338.594 251.375 338.594 253.125C338.594 255.771 338.76 257.833 339.094 259.312C339.198 259.729 339.354 260.052 339.562 260.281C339.771 260.51 340.167 260.792 340.75 261.125C342 261.812 342.625 262.719 342.625 263.844C342.625 265.219 341.75 266.198 340 266.781C338.271 267.344 335.333 267.625 331.188 267.625C323.479 267.625 319.625 266.167 319.625 263.25C319.625 262.75 319.74 262.354 319.969 262.062C320.198 261.75 320.719 261.323 321.531 260.781C322.448 260.177 323.062 259.469 323.375 258.656C323.708 257.823 323.938 256.396 324.062 254.375C324.167 252.896 324.219 247.594 324.219 238.469C324.219 235.573 324.073 233.604 323.781 232.562C323.49 231.521 322.865 230.76 321.906 230.281C320.99 229.844 320.375 229.448 320.062 229.094C319.75 228.719 319.594 228.24 319.594 227.656C319.594 226.885 319.885 226.219 320.469 225.656C321.073 225.073 321.906 224.646 322.969 224.375C323.865 224.146 325.094 224.031 326.656 224.031C327.344 224.031 329.062 224.135 331.812 224.344C332.333 224.385 333.156 224.406 334.281 224.406C336.156 224.406 338.656 224.281 341.781 224.031C343.76 223.885 345.146 223.812 345.938 223.812C350.396 223.812 354.083 224.885 357 227.031C359.625 228.969 360.938 231.656 360.938 235.094C360.938 237.01 360.479 238.76 359.562 240.344C358.646 241.906 357.385 243.083 355.781 243.875C355.115 244.208 354.781 244.604 354.781 245.062C354.781 245.667 355.292 246.156 356.312 246.531C358.5 247.323 360.104 248.521 361.125 250.125C362.146 251.729 362.875 254.188 363.312 257.5C363.5 258.875 363.771 259.771 364.125 260.188C364.479 260.583 365.302 260.969 366.594 261.344C366.99 261.469 367.323 261.74 367.594 262.156C367.865 262.552 368 263 368 263.5C368 264.146 367.75 264.802 367.25 265.469C366.75 266.115 366.104 266.625 365.312 267C363.562 267.812 361.167 268.219 358.125 268.219C354.062 268.219 351.156 267.146 349.406 265C348.615 264.042 347.938 262.833 347.375 261.375C346.833 259.917 346.188 257.646 345.438 254.562C344.958 252.583 344.344 251.188 343.594 250.375C342.865 249.562 341.812 249.125 340.438 249.062ZM338.625 233.125L338.281 240.406C338.281 240.469 338.281 240.562 338.281 240.688C338.281 241.438 338.385 241.938 338.594 242.188C338.823 242.438 339.271 242.562 339.938 242.562C341.771 242.562 343.104 242.094 343.938 241.156C344.771 240.198 345.188 238.677 345.188 236.594C345.188 232.573 343.76 230.562 340.906 230.562C340.094 230.562 339.521 230.75 339.188 231.125C338.854 231.5 338.667 232.167 338.625 233.125ZM376.156 224.344H392.219C395.469 224.344 397.833 224.281 399.312 224.156C400.812 224.01 402.271 223.729 403.688 223.312C404.125 223.188 404.469 223.125 404.719 223.125C405.802 223.125 406.76 223.708 407.594 224.875C408.969 226.771 409.656 229.062 409.656 231.75C409.656 233.104 409.365 234.177 408.781 234.969C408.219 235.74 407.438 236.125 406.438 236.125C405.75 236.125 405.208 235.99 404.812 235.719C404.438 235.427 403.927 234.792 403.281 233.812C402.365 232.417 401.198 231.49 399.781 231.031C398.385 230.552 396.083 230.312 392.875 230.312C390.479 230.312 389.021 230.74 388.5 231.594C388.229 232.052 388.062 232.667 388 233.438C387.958 234.208 387.938 236.177 387.938 239.344C387.938 240.594 388.146 241.375 388.562 241.688C388.979 241.979 390.073 242.125 391.844 242.125C392.719 242.125 393.354 241.948 393.75 241.594C394.146 241.219 394.396 240.562 394.5 239.625C394.646 238.417 394.792 237.594 394.938 237.156C395.104 236.698 395.396 236.302 395.812 235.969C396.25 235.594 396.76 235.406 397.344 235.406C398.198 235.406 398.927 235.812 399.531 236.625C399.969 237.229 400.333 238.302 400.625 239.844C400.938 241.365 401.094 242.958 401.094 244.625C401.094 247.917 400.583 250.615 399.562 252.719C399 253.865 398.146 254.438 397 254.438C396.292 254.438 395.802 254.26 395.531 253.906C395.26 253.531 395.052 252.771 394.906 251.625C394.594 249.271 393.219 248.094 390.781 248.094C389.844 248.094 389.198 248.396 388.844 249C388.51 249.583 388.344 250.677 388.344 252.281C388.344 253.26 388.406 254.531 388.531 256.094C388.677 257.635 388.823 258.656 388.969 259.156C389.135 259.781 389.646 260.219 390.5 260.469C391.375 260.698 392.823 260.812 394.844 260.812C397.969 260.812 400.323 260.417 401.906 259.625C403.49 258.812 404.781 257.354 405.781 255.25C406.365 254.042 406.885 253.229 407.344 252.812C407.823 252.396 408.438 252.188 409.188 252.188C410.062 252.188 410.781 252.573 411.344 253.344C411.927 254.094 412.219 255.042 412.219 256.188C412.219 257.438 411.896 259 411.25 260.875C410.604 262.75 409.812 264.417 408.875 265.875C408.396 266.583 408 267.052 407.688 267.281C407.375 267.531 406.979 267.656 406.5 267.656C406.104 267.656 405.531 267.594 404.781 267.469C403.448 267.219 401.667 267.062 399.438 267H372.938C371.875 267 371.052 266.771 370.469 266.312C369.885 265.833 369.594 265.167 369.594 264.312C369.594 263.708 369.719 263.271 369.969 263C370.219 262.729 370.792 262.385 371.688 261.969C372.312 261.698 372.771 261.365 373.062 260.969C373.375 260.573 373.615 259.99 373.781 259.219C374.469 256.073 374.812 251.833 374.812 246.5C374.812 238.458 374.312 233.385 373.312 231.281C373.104 230.865 372.875 230.573 372.625 230.406C372.375 230.24 371.854 230.042 371.062 229.812C369.875 229.458 369.281 228.667 369.281 227.438C369.281 226.771 369.479 226.177 369.875 225.656C370.271 225.135 370.792 224.792 371.438 224.625C372.25 224.438 373.823 224.344 376.156 224.344ZM450.375 249.062C449.583 249.062 449.073 249.302 448.844 249.781C448.635 250.26 448.531 251.375 448.531 253.125C448.531 255.771 448.698 257.833 449.031 259.312C449.135 259.729 449.292 260.052 449.5 260.281C449.708 260.51 450.104 260.792 450.688 261.125C451.938 261.812 452.562 262.719 452.562 263.844C452.562 265.219 451.688 266.198 449.938 266.781C448.208 267.344 445.271 267.625 441.125 267.625C433.417 267.625 429.562 266.167 429.562 263.25C429.562 262.75 429.677 262.354 429.906 262.062C430.135 261.75 430.656 261.323 431.469 260.781C432.385 260.177 433 259.469 433.312 258.656C433.646 257.823 433.875 256.396 434 254.375C434.104 252.896 434.156 247.594 434.156 238.469C434.156 235.573 434.01 233.604 433.719 232.562C433.427 231.521 432.802 230.76 431.844 230.281C430.927 229.844 430.312 229.448 430 229.094C429.688 228.719 429.531 228.24 429.531 227.656C429.531 226.885 429.823 226.219 430.406 225.656C431.01 225.073 431.844 224.646 432.906 224.375C433.802 224.146 435.031 224.031 436.594 224.031C437.281 224.031 439 224.135 441.75 224.344C442.271 224.385 443.094 224.406 444.219 224.406C446.094 224.406 448.594 224.281 451.719 224.031C453.698 223.885 455.083 223.812 455.875 223.812C460.333 223.812 464.021 224.885 466.938 227.031C469.562 228.969 470.875 231.656 470.875 235.094C470.875 237.01 470.417 238.76 469.5 240.344C468.583 241.906 467.323 243.083 465.719 243.875C465.052 244.208 464.719 244.604 464.719 245.062C464.719 245.667 465.229 246.156 466.25 246.531C468.438 247.323 470.042 248.521 471.062 250.125C472.083 251.729 472.812 254.188 473.25 257.5C473.438 258.875 473.708 259.771 474.062 260.188C474.417 260.583 475.24 260.969 476.531 261.344C476.927 261.469 477.26 261.74 477.531 262.156C477.802 262.552 477.938 263 477.938 263.5C477.938 264.146 477.688 264.802 477.188 265.469C476.688 266.115 476.042 266.625 475.25 267C473.5 267.812 471.104 268.219 468.062 268.219C464 268.219 461.094 267.146 459.344 265C458.552 264.042 457.875 262.833 457.312 261.375C456.771 259.917 456.125 257.646 455.375 254.562C454.896 252.583 454.281 251.188 453.531 250.375C452.802 249.562 451.75 249.125 450.375 249.062ZM448.562 233.125L448.219 240.406C448.219 240.469 448.219 240.562 448.219 240.688C448.219 241.438 448.323 241.938 448.531 242.188C448.76 242.438 449.208 242.562 449.875 242.562C451.708 242.562 453.042 242.094 453.875 241.156C454.708 240.198 455.125 238.677 455.125 236.594C455.125 232.573 453.698 230.562 450.844 230.562C450.031 230.562 449.458 230.75 449.125 231.125C448.792 231.5 448.604 232.167 448.562 233.125ZM493 223.688C495.375 223.688 497.615 223.896 499.719 224.312C502.552 224.875 503.969 226.073 503.969 227.906C503.969 228.51 503.823 228.969 503.531 229.281C503.26 229.573 502.552 230.01 501.406 230.594C500.448 231.073 499.812 232.125 499.5 233.75C499.208 235.375 499.062 238.542 499.062 243.25C499.062 251.208 499.26 256.135 499.656 258.031C499.802 258.635 500.021 259.104 500.312 259.438C500.625 259.75 501.156 260.094 501.906 260.469C503.281 261.094 503.969 262 503.969 263.188C503.969 264.854 502.698 266 500.156 266.625C497.406 267.292 494.042 267.625 490.062 267.625C483.271 267.625 479.875 266.333 479.875 263.75C479.875 262.812 480.542 261.938 481.875 261.125C482.896 260.5 483.5 259.646 483.688 258.562C484.083 256.188 484.281 251.146 484.281 243.438C484.281 238.104 484.01 234.688 483.469 233.188C483.177 232.333 482.479 231.562 481.375 230.875C480.521 230.312 479.948 229.844 479.656 229.469C479.365 229.094 479.219 228.615 479.219 228.031C479.219 227.135 479.646 226.427 480.5 225.906C481.375 225.365 482.906 224.885 485.094 224.469C487.698 223.948 490.333 223.688 493 223.688ZM529.938 223.469C532.979 223.469 535.917 224.135 538.75 225.469C540.083 226.094 541.01 226.406 541.531 226.406C541.906 226.406 542.51 226.312 543.344 226.125C543.615 226.062 543.917 226.031 544.25 226.031C545.333 226.031 546.281 226.531 547.094 227.531C549.094 229.948 550.094 232.948 550.094 236.531C550.094 239.052 549.229 240.896 547.5 242.062C546.562 242.688 545.51 243 544.344 243C543.281 243 542.417 242.771 541.75 242.312C541.083 241.854 540.438 241.042 539.812 239.875C538.917 238.229 538.188 237.052 537.625 236.344C537.062 235.615 536.375 234.958 535.562 234.375C533.542 232.958 531.427 232.25 529.219 232.25C527.073 232.25 525.365 233.031 524.094 234.594C522.844 236.135 522.219 238.208 522.219 240.812C522.219 244.396 523.125 247.677 524.938 250.656C527.396 254.635 530.917 256.625 535.5 256.625C537.188 256.625 538.854 256.344 540.5 255.781C542.167 255.219 543.458 254.49 544.375 253.594C545.167 252.844 545.812 252.469 546.312 252.469C547.042 252.469 547.667 252.812 548.188 253.5C548.708 254.167 548.969 254.979 548.969 255.938C548.969 257.146 548.604 258.5 547.875 260C547.146 261.5 546.271 262.677 545.25 263.531C544.812 263.885 543.906 264.198 542.531 264.469C541.74 264.615 540.688 265 539.375 265.625C536.292 267.104 533.083 267.844 529.75 267.844C526.271 267.844 522.802 267.062 519.344 265.5C515.323 263.688 512.146 260.906 509.812 257.156C507.521 253.51 506.375 249.698 506.375 245.719C506.375 241.094 507.812 236.875 510.688 233.062C513.188 229.75 516.448 227.219 520.469 225.469C523.531 224.135 526.688 223.469 529.938 223.469ZM566.25 223.656C572.75 223.656 576 225 576 227.688C576 228.417 575.833 229.01 575.5 229.469C575.167 229.927 574.531 230.438 573.594 231C572.781 231.5 572.26 232.156 572.031 232.969C571.823 233.781 571.719 235.427 571.719 237.906C571.719 239.365 571.99 240.26 572.531 240.594C572.844 240.802 573.312 240.927 573.938 240.969C574.583 241.01 576.083 241.031 578.438 241.031C580.583 241.031 581.917 240.917 582.438 240.688C582.958 240.458 583.219 239.885 583.219 238.969C583.219 236.219 583.094 234.302 582.844 233.219C582.594 232.135 582.104 231.396 581.375 231C580.458 230.479 579.854 230.042 579.562 229.688C579.271 229.312 579.125 228.823 579.125 228.219C579.125 227.365 579.448 226.594 580.094 225.906C580.74 225.198 581.583 224.719 582.625 224.469C584.792 223.948 587.51 223.688 590.781 223.688C594.615 223.688 597.438 224.042 599.25 224.75C601.083 225.438 602 226.521 602 228C602 229.25 601.354 230.188 600.062 230.812C599.25 231.188 598.719 231.552 598.469 231.906C598.219 232.24 598.021 232.875 597.875 233.812C597.792 234.333 597.688 236.646 597.562 240.75C597.438 244.854 597.375 248.115 597.375 250.531C597.375 254.76 597.531 257.448 597.844 258.594C598.01 259.219 598.198 259.635 598.406 259.844C598.615 260.052 599.271 260.469 600.375 261.094C601.167 261.531 601.562 262.198 601.562 263.094C601.562 264.677 600.615 265.833 598.719 266.562C596.844 267.271 593.792 267.625 589.562 267.625C585.854 267.625 583.115 267.26 581.344 266.531C579.74 265.865 578.938 264.833 578.938 263.438C578.938 262.25 579.552 261.323 580.781 260.656C581.385 260.323 581.792 259.99 582 259.656C582.229 259.323 582.448 258.708 582.656 257.812C583.031 256.062 583.219 253.917 583.219 251.375C583.219 250.062 583.021 249.25 582.625 248.938C582.25 248.625 581.25 248.469 579.625 248.469C575.896 248.469 573.521 248.677 572.5 249.094C572.083 249.26 571.823 249.75 571.719 250.562C571.594 251.562 571.531 252.792 571.531 254.25C571.531 256.625 571.865 258.333 572.531 259.375C572.76 259.708 573.302 260.135 574.156 260.656C575.031 261.156 575.469 261.979 575.469 263.125C575.469 264.583 574.458 265.698 572.438 266.469C570.417 267.24 567.531 267.625 563.781 267.625C560.365 267.625 557.573 267.271 555.406 266.562C554.469 266.25 553.729 265.812 553.188 265.25C552.667 264.667 552.406 264.031 552.406 263.344C552.406 262.656 552.573 262.125 552.906 261.75C553.24 261.375 553.969 260.896 555.094 260.312C555.677 260.021 556.083 259.646 556.312 259.188C556.562 258.729 556.75 257.958 556.875 256.875C557.188 254.438 557.344 251.25 557.344 247.312C557.344 246.583 557.333 245.719 557.312 244.719C557.229 239.719 557.188 236.865 557.188 236.156C557.208 234.365 557.052 233.188 556.719 232.625C556.406 232.042 555.562 231.406 554.188 230.719C553.271 230.281 552.812 229.625 552.812 228.75C552.812 226.646 554.854 225.188 558.938 224.375C561.312 223.896 563.75 223.656 566.25 223.656Z" fill="#FEFAE0"/>
<defs>
<linearGradient id="paint0_linear_477_10083" x1="358.005" y1="63.9979" x2="418" y2="63.9979" gradientUnits="userSpaceOnUse">
<stop stop-color="#CCE0F4"/>
<stop offset="0.06" stop-color="#C2DCF2"/>
<stop offset="0.17" stop-color="#A9D2EE"/>
<stop offset="0.31" stop-color="#7FC2E7"/>
<stop offset="0.46" stop-color="#46ABDD"/>
<stop offset="0.57" stop-color="#1E9CD7"/>
<stop offset="0.87" stop-color="#0075BE"/>
<stop offset="0.99" stop-color="#005B97"/>
</linearGradient>
<linearGradient id="paint1_linear_477_10083" x1="437.005" y1="71.501" x2="525.005" y2="71.501" gradientUnits="userSpaceOnUse">
<stop stop-color="#CCE0F4"/>
<stop offset="0.06" stop-color="#C2DCF2"/>
<stop offset="0.17" stop-color="#A9D2EE"/>
<stop offset="0.31" stop-color="#7FC2E7"/>
<stop offset="0.46" stop-color="#46ABDD"/>
<stop offset="0.57" stop-color="#1E9CD7"/>
<stop offset="0.87" stop-color="#0075BE"/>
<stop offset="0.99" stop-color="#005B97"/>
</linearGradient>
<linearGradient id="paint2_linear_477_10083" x1="351" y1="176.49" x2="421" y2="176.49" gradientUnits="userSpaceOnUse">
<stop stop-color="#CCE0F4"/>
<stop offset="0.06" stop-color="#C2DCF2"/>
<stop offset="0.17" stop-color="#A9D2EE"/>
<stop offset="0.31" stop-color="#7FC2E7"/>
<stop offset="0.46" stop-color="#46ABDD"/>
<stop offset="0.57" stop-color="#1E9CD7"/>
<stop offset="0.87" stop-color="#0075BE"/>
<stop offset="0.99" stop-color="#005B97"/>
</linearGradient>
<linearGradient id="paint3_linear_477_10083" x1="422.005" y1="183.508" x2="500.002" y2="183.508" gradientUnits="userSpaceOnUse">
<stop stop-color="#CCE0F4"/>
<stop offset="0.06" stop-color="#C2DCF2"/>
<stop offset="0.17" stop-color="#A9D2EE"/>
<stop offset="0.31" stop-color="#7FC2E7"/>
<stop offset="0.46" stop-color="#46ABDD"/>
<stop offset="0.57" stop-color="#1E9CD7"/>
<stop offset="0.87" stop-color="#0075BE"/>
<stop offset="0.99" stop-color="#005B97"/>
</linearGradient>
<linearGradient id="paint4_linear_477_10083" x1="362.999" y1="103.995" x2="502.001" y2="103.995" gradientUnits="userSpaceOnUse">
<stop stop-color="#CCE0F4"/>
<stop offset="0.06" stop-color="#C2DCF2"/>
<stop offset="0.17" stop-color="#A9D2EE"/>
<stop offset="0.31" stop-color="#7FC2E7"/>
<stop offset="0.46" stop-color="#46ABDD"/>
<stop offset="0.57" stop-color="#1E9CD7"/>
<stop offset="0.87" stop-color="#0075BE"/>
<stop offset="0.99" stop-color="#005B97"/>
</linearGradient>
<linearGradient id="paint5_linear_477_10083" x1="20.0031" y1="147.006" x2="348.015" y2="147.006" gradientUnits="userSpaceOnUse">
<stop stop-color="#CCE0F4"/>
<stop offset="0.06" stop-color="#C2DCF2"/>
<stop offset="0.17" stop-color="#A9D2EE"/>
<stop offset="0.31" stop-color="#7FC2E7"/>
<stop offset="0.46" stop-color="#46ABDD"/>
<stop offset="0.57" stop-color="#1E9CD7"/>
<stop offset="0.87" stop-color="#0075BE"/>
<stop offset="0.99" stop-color="#005B97"/>
</linearGradient>
<linearGradient id="paint6_linear_477_10083" x1="201.995" y1="46.4977" x2="348" y2="46.4977" gradientUnits="userSpaceOnUse">
<stop stop-color="#CCE0F4"/>
<stop offset="0.06" stop-color="#C2DCF2"/>
<stop offset="0.17" stop-color="#A9D2EE"/>
<stop offset="0.31" stop-color="#7FC2E7"/>
<stop offset="0.46" stop-color="#46ABDD"/>
<stop offset="0.57" stop-color="#1E9CD7"/>
<stop offset="0.87" stop-color="#0075BE"/>
<stop offset="0.99" stop-color="#005B97"/>
</linearGradient>
<linearGradient id="paint7_linear_477_10083" x1="202" y1="70.9977" x2="348" y2="70.9977" gradientUnits="userSpaceOnUse">
<stop stop-color="#CCE0F4"/>
<stop offset="0.06" stop-color="#C2DCF2"/>
<stop offset="0.17" stop-color="#A9D2EE"/>
<stop offset="0.31" stop-color="#7FC2E7"/>
<stop offset="0.46" stop-color="#46ABDD"/>
<stop offset="0.57" stop-color="#1E9CD7"/>
<stop offset="0.87" stop-color="#0075BE"/>
<stop offset="0.99" stop-color="#005B97"/>
</linearGradient>
<linearGradient id="paint8_linear_477_10083" x1="202" y1="107.495" x2="348" y2="107.495" gradientUnits="userSpaceOnUse">
<stop stop-color="#CCE0F4"/>
<stop offset="0.06" stop-color="#C2DCF2"/>
<stop offset="0.17" stop-color="#A9D2EE"/>
<stop offset="0.31" stop-color="#7FC2E7"/>
<stop offset="0.46" stop-color="#46ABDD"/>
<stop offset="0.57" stop-color="#1E9CD7"/>
<stop offset="0.87" stop-color="#0075BE"/>
<stop offset="0.99" stop-color="#005B97"/>
</linearGradient>
</defs>
</svg>
