<svg width="56" height="65" viewBox="0 0 56 65" fill="none" xmlns="http://www.w3.org/2000/svg">
<g filter="url(#filter0_d_293_10996)">
<path d="M19 4C19 1.79086 20.7909 0 23 0H33C35.2091 0 37 1.79086 37 4V28H19V4Z" fill="url(#paint0_linear_293_10996)"/>
</g>
<g filter="url(#filter1_d_293_10996)">
<path d="M31.3589 58.8055C29.7829 61.2428 26.2171 61.2428 24.6411 58.8055L7.7423 32.672C6.02128 30.0105 7.93176 26.5 11.1012 26.5L44.8988 26.5C48.0682 26.5 49.9787 30.0105 48.2577 32.672L31.3589 58.8055Z" fill="url(#paint1_linear_293_10996)"/>
</g>
<defs>
<filter id="filter0_d_293_10996" x="19" y="0" width="22" height="32" filterUnits="userSpaceOnUse" color-interpolation-filters="sRGB">
<feFlood flood-opacity="0" result="BackgroundImageFix"/>
<feColorMatrix in="SourceAlpha" type="matrix" values="0 0 0 0 0 0 0 0 0 0 0 0 0 0 0 0 0 0 127 0" result="hardAlpha"/>
<feOffset dx="2" dy="2"/>
<feGaussianBlur stdDeviation="1"/>
<feComposite in2="hardAlpha" operator="out"/>
<feColorMatrix type="matrix" values="0 0 0 0 0 0 0 0 0 0 0 0 0 0 0 0 0 0 0.25 0"/>
<feBlend mode="normal" in2="BackgroundImageFix" result="effect1_dropShadow_293_10996"/>
<feBlend mode="normal" in="SourceGraphic" in2="effect1_dropShadow_293_10996" result="shape"/>
</filter>
<filter id="filter1_d_293_10996" x="7.09473" y="26.5" width="45.8105" height="38.1335" filterUnits="userSpaceOnUse" color-interpolation-filters="sRGB">
<feFlood flood-opacity="0" result="BackgroundImageFix"/>
<feColorMatrix in="SourceAlpha" type="matrix" values="0 0 0 0 0 0 0 0 0 0 0 0 0 0 0 0 0 0 127 0" result="hardAlpha"/>
<feOffset dx="2" dy="2"/>
<feGaussianBlur stdDeviation="1"/>
<feComposite in2="hardAlpha" operator="out"/>
<feColorMatrix type="matrix" values="0 0 0 0 0 0 0 0 0 0 0 0 0 0 0 0 0 0 0.25 0"/>
<feBlend mode="normal" in2="BackgroundImageFix" result="effect1_dropShadow_293_10996"/>
<feBlend mode="normal" in="SourceGraphic" in2="effect1_dropShadow_293_10996" result="shape"/>
</filter>
<linearGradient id="paint0_linear_293_10996" x1="19" y1="14" x2="37" y2="14" gradientUnits="userSpaceOnUse">
<stop offset="0.484375" stop-color="#008227"/>
<stop offset="0.791667" stop-color="#01581B"/>
</linearGradient>
<linearGradient id="paint1_linear_293_10996" x1="43.9444" y1="39" x2="11.6667" y2="39" gradientUnits="userSpaceOnUse">
<stop offset="0.327453" stop-color="#01581B"/>
<stop offset="0.513339" stop-color="#008227"/>
</linearGradient>
</defs>
</svg>
