<svg width="117" height="108" viewBox="0 0 117 108" fill="none" xmlns="http://www.w3.org/2000/svg">
<rect x="1.5" y="7.5" width="114" height="99" rx="10.5" fill="#F2F2F2" stroke="#5B5B5B" stroke-width="3"/>
<mask id="path-2-inside-1_289_7387" fill="white">
<path d="M0 19C0 12.3726 5.37258 7 12 7H105C111.627 7 117 12.3726 117 19V39H0V19Z"/>
</mask>
<path d="M0 19C0 12.3726 5.37258 7 12 7H105C111.627 7 117 12.3726 117 19V39H0V19Z" fill="#B67171"/>
<path d="M-3 19C-3 10.7157 3.71573 4 12 4H105C113.284 4 120 10.7157 120 19H114C114 14.0294 109.971 10 105 10H12C7.02944 10 3 14.0294 3 19H-3ZM117 39H0H117ZM-3 39V19C-3 10.7157 3.71573 4 12 4V10C7.02944 10 3 14.0294 3 19V39H-3ZM105 4C113.284 4 120 10.7157 120 19V39H114V19C114 14.0294 109.971 10 105 10V4Z" fill="#5B5B5B" mask="url(#path-2-inside-1_289_7387)"/>
<path d="M40.984 25V28.68H44.872V25H40.984ZM39.848 23.928H46.072V29.736H39.848V23.928ZM36.312 20.216H49.688V34.264H48.408V21.432H37.544V34.264H36.312V20.216ZM37 32.28H49.144V33.416H37V32.28ZM54.968 24.792H63.048V25.864H54.968V24.792ZM54.68 32.568H63.256V33.64H54.68V32.568ZM54.136 27.88H63.928V34.296H62.712V28.968H55.304V34.296H54.136V27.88ZM58.952 20.792C57.64 22.744 55.016 25.016 52.28 26.504C52.12 26.232 51.8 25.8 51.528 25.544C54.344 24.12 57.016 21.672 58.28 19.608H59.496C61.224 21.992 64.024 24.216 66.584 25.352C66.28 25.64 65.992 26.056 65.784 26.408C63.272 25.096 60.456 22.84 58.952 20.792ZM77.816 21.032H78.936V29.896H77.816V21.032ZM80.664 19.736H81.832V32.616C81.832 33.416 81.64 33.768 81.144 33.992C80.664 34.2 79.784 34.232 78.6 34.232C78.536 33.88 78.36 33.336 78.2 32.952C79.144 32.984 80.04 32.984 80.328 32.984C80.584 32.968 80.664 32.904 80.664 32.632V19.736ZM71.624 19.624H72.76V34.28H71.624V19.624ZM74.984 27.384H76.088V31.784C76.088 32.328 76.008 32.632 75.608 32.824C75.224 33.016 74.616 33.032 73.72 33.016C73.688 32.712 73.544 32.28 73.384 31.976C74.072 31.992 74.584 31.992 74.776 31.976C74.936 31.976 74.984 31.928 74.984 31.768V27.384ZM68.44 27.384H75.432V28.472H69.528V32.968H68.44V27.384ZM67.704 24.664H76.664V25.768H67.704V24.664ZM69.256 21.88H76.024V22.984H69.032L69.256 21.88ZM69.272 19.944L70.392 20.168C70.008 21.832 69.384 23.528 68.712 24.616C68.472 24.488 67.944 24.28 67.656 24.184C68.376 23.096 68.936 21.496 69.272 19.944Z" fill="white"/>
<path d="M58.3585 94C50.7887 94 45.4642 91.3977 42 87.399L47.2604 80.2902C50.1472 82.956 53.483 84.8601 57.2038 84.8601C61.6302 84.8601 64.517 83.0194 64.517 79.465C64.517 75.4028 62.3358 72.9909 52.3283 72.9909V64.9935C60.4755 64.9935 63.0415 62.5816 63.0415 58.8368C63.0415 55.5997 61.117 53.8225 57.5887 53.8225C54.3811 53.8225 51.9434 55.2189 49.0566 57.7578L43.283 50.8394C47.7094 47.158 52.4566 45 58.1019 45C67.9811 45 74.4604 49.5699 74.4604 58.0117C74.4604 62.7085 71.8943 66.3899 66.8264 68.421V68.7383C72.0868 70.3251 76 74.1334 76 80.2267C76 89.0492 67.8528 94 58.3585 94Z" fill="black"/>
<rect x="28.5" y="0.5" width="5" height="13" rx="2.5" fill="#F2F2F2" stroke="#5B5B5B"/>
<rect x="56.5" y="0.5" width="5" height="13" rx="2.5" fill="#F2F2F2" stroke="#5B5B5B"/>
<rect x="84.5" y="0.5" width="5" height="13" rx="2.5" fill="#F2F2F2" stroke="#5B5B5B"/>
</svg>
