<svg width="133" height="148" viewBox="0 0 133 148" fill="none" xmlns="http://www.w3.org/2000/svg">
<path fill-rule="evenodd" clip-rule="evenodd" d="M133 122.056C133 130.538 133 148 123.5 148L68 148L65 148L9 148C0 148 0 130 0 122H68V122.051C81.1444 122.028 133 121.946 133 122.056Z" fill="url(#paint0_linear_275_28191)"/>
<rect x="1.5" y="1.5" width="130" height="130.101" rx="10.5" fill="#415A77" stroke="#484848" stroke-width="3"/>
<path d="M97.9048 87.7639H96.8584C96.6515 84.9927 95.8477 78 93.0151 78H75.484C72.6523 78 71.8485 84.9927 71.6416 87.7639H70.5952C68.6095 87.7639 67 89.4542 67 91.5398V98.0658C67 100.151 68.6095 100.917 70.5952 100.917H70.858V102.736C70.858 103.987 71.8723 105 73.1238 105C74.3753 105 75.3888 103.986 75.3888 102.736V100.917H93.1112V102.736C93.1112 103.987 94.1256 105 95.3771 105C96.6286 105 97.6421 103.986 97.6421 102.736V100.917H97.9048C99.8905 100.917 101.5 99.2272 101.5 97.1415V91.5398C101.5 89.4542 99.8905 87.7639 97.9048 87.7639ZM77.1356 79.8248H91.3644C93.8042 79.8248 94.3893 86.079 94.5092 87.9405H73.9908C74.1108 86.079 74.6958 79.8248 77.1356 79.8248ZM71.9904 94.4702C70.6163 94.4702 69.503 93.3564 69.503 91.9837C69.503 90.6109 70.6172 89.4972 71.9904 89.4972C73.3637 89.4972 74.4779 90.61 74.4779 91.9837C74.4779 93.3573 73.3646 94.4702 71.9904 94.4702ZM87.5294 98.6945H80.9725V95.2151H87.5294V98.6945ZM96.5105 94.4702C95.1372 94.4702 94.0231 93.3564 94.0231 91.9837C94.0231 90.6109 95.1372 89.4972 96.5105 89.4972C97.8837 89.4972 98.9979 90.61 98.9979 91.9837C98.9979 93.3573 97.8837 94.4702 96.5105 94.4702Z" fill="white"/>
<path d="M101.164 86.6537C101.164 86.6537 101.003 84.7703 98.9471 84.6806C96.8918 84.5919 97.7569 86.9905 97.7569 86.9905C98.8848 87.524 101.164 86.6537 101.164 86.6537Z" fill="white"/>
<path d="M70.7259 87.2221C70.7259 87.2221 71.5911 84.8234 69.5358 84.9122C67.4805 85.001 67.3193 86.8853 67.3193 86.8853C67.3193 86.8853 69.598 87.7556 70.7259 87.2221Z" fill="white"/>
<path d="M71.6684 28H34V105H50.7017V72.728H71.6684C78.4783 72.728 84 66.7391 84 59.3508V41.3763C84 33.9889 78.4792 28 71.6684 28ZM68.822 54.235C68.822 57.417 66.4419 59.995 63.505 59.995H50.7008V40.733H63.505C66.4419 40.733 68.822 43.312 68.822 46.494V54.235Z" fill="white"/>
<path fill-rule="evenodd" clip-rule="evenodd" d="M7.5 16C7.5 10.7533 11.7533 6.5 17 6.5H117C122.247 6.5 126.5 10.7533 126.5 16V116C126.5 121.247 122.247 125.5 117 125.5H17C11.7533 125.5 7.5 121.247 7.5 116V16ZM17 9.5C13.4101 9.5 10.5 12.4101 10.5 16V116C10.5 119.59 13.4101 122.5 17 122.5H117C120.59 122.5 123.5 119.59 123.5 116V16C123.5 12.4101 120.59 9.5 117 9.5H17Z" fill="white"/>
<defs>
<linearGradient id="paint0_linear_275_28191" x1="6" y1="137.077" x2="125.5" y2="137.547" gradientUnits="userSpaceOnUse">
<stop offset="0.00517314" stop-color="#6D6D6D"/>
<stop offset="0.0428206" stop-color="#5B5B5B"/>
<stop offset="0.418407" stop-color="#484848"/>
<stop offset="0.965425" stop-color="#484848"/>
</linearGradient>
</defs>
</svg>
