<svg width="133" height="148" viewBox="0 0 133 148" fill="none" xmlns="http://www.w3.org/2000/svg">
<path fill-rule="evenodd" clip-rule="evenodd" d="M133 122.056C133 130.538 133 148 123.5 148L68 148L65 148L9 148C0 148 0 130 0 122H68V122.051C81.1444 122.028 133 121.946 133 122.056Z" fill="url(#paint0_linear_317_38003)"/>
<rect x="1.5" y="1.5" width="130" height="130" rx="10.5" fill="#6D6D6D" stroke="#484848" stroke-width="3"/>
<line x1="13.5908" y1="3" x2="13.5908" y2="130" stroke="#FFD600" stroke-width="3"/>
<line x1="119.387" y1="3" x2="119.387" y2="130" stroke="#FFD600" stroke-width="3"/>
<rect x="61" y="3" width="12" height="24" fill="white"/>
<rect x="61" y="37.3333" width="12" height="24" fill="white"/>
<rect x="61" y="71.6667" width="12" height="24" fill="white"/>
<rect x="61" y="106" width="12" height="24" fill="white"/>
<defs>
<linearGradient id="paint0_linear_317_38003" x1="6" y1="137.077" x2="125.5" y2="137.547" gradientUnits="userSpaceOnUse">
<stop offset="0.00517314" stop-color="#6D6D6D"/>
<stop offset="0.0428206" stop-color="#5B5B5B"/>
<stop offset="0.418407" stop-color="#484848"/>
<stop offset="0.965425" stop-color="#484848"/>
</linearGradient>
</defs>
</svg>
