<svg width="24" height="24" viewBox="0 0 24 24" fill="none" xmlns="http://www.w3.org/2000/svg">
<path d="M21.7103 14.1739L21.9427 11.9952C22.0653 10.8323 22.1474 10.0656 22.0829 9.58259H22.1057C22.5381 9.58247 22.9574 9.43277 23.2941 9.15832C23.6308 8.88388 23.8645 8.5012 23.9566 8.07383C24.0486 7.64646 23.9934 7.2001 23.8001 6.80885C23.6068 6.41761 23.287 6.10501 22.8938 5.92296C22.5007 5.74091 22.0578 5.70036 21.6387 5.80803C21.2196 5.91571 20.8496 6.16514 20.59 6.51492C20.3303 6.86469 20.1968 7.29377 20.2115 7.73091C20.2261 8.16805 20.3882 8.58697 20.6707 8.91811C20.2589 9.17496 19.7207 9.71804 18.911 10.5346C18.2857 11.1646 17.9737 11.4789 17.6251 11.5275C17.4319 11.5544 17.2351 11.5266 17.0566 11.447C16.7358 11.3039 16.521 10.9154 16.0928 10.1372L13.8317 6.03656C13.5676 5.55737 13.3466 5.15484 13.147 4.83283C13.6526 4.57221 14.0568 4.14697 14.2944 3.62565C14.5319 3.10432 14.5891 2.51726 14.4566 1.95907C14.3241 1.40087 14.0097 0.904054 13.5641 0.548661C13.1184 0.193267 12.5675 0 12 0C11.4325 0 10.8816 0.193267 10.4359 0.548661C9.99026 0.904054 9.67587 1.40087 9.54339 1.95907C9.41091 2.51726 9.46807 3.10432 9.70564 3.62565C9.94322 4.14697 10.3474 4.57221 10.853 4.83283C10.6534 5.15612 10.4324 5.55737 10.1671 6.03656L7.9072 10.1372C7.47771 10.9154 7.26296 11.3039 6.94211 11.447C6.76366 11.5266 6.56686 11.5544 6.37366 11.5275C6.02628 11.4789 5.71427 11.1646 5.08898 10.5346C4.27926 9.71804 3.74113 9.17496 3.32933 8.91811C3.61182 8.58697 3.77386 8.16805 3.78854 7.73091C3.80322 7.29377 3.66967 6.86469 3.41005 6.51492C3.15043 6.16514 2.78036 5.91571 2.36128 5.80803C1.9422 5.70036 1.49932 5.74091 1.10617 5.92296C0.713016 6.10501 0.393237 6.41761 0.199923 6.80885C0.00660935 7.2001 -0.0486114 7.64646 0.0434287 8.07383C0.135469 8.5012 0.369233 8.88388 0.705913 9.15832C1.04259 9.43277 1.46193 9.58247 1.89432 9.58259H1.91706C1.85263 10.0656 1.93474 10.8336 2.05727 11.9952L2.2897 14.1739C2.41855 15.3827 2.83541 16.9649 2.96678 18H21.0332C21.1646 16.9649 21.5814 15.384 21.7103 14.1739ZM11 24H13.5641C17.1466 24 19 24 20 23C20.5217 22.5272 20.7945 21.1079 21.0332 20H2.96678C3.20553 21.1079 3.47829 22.5285 4 23C5.08898 24 7.41754 24 11 24Z" fill="white"/>
</svg>
